<svg xmlns="http://www.w3.org/2000/svg" xmlns:xlink="http://www.w3.org/1999/xlink" width="170" zoomAndPan="magnify" viewBox="0 0 127.5 127.499994" height="170" preserveAspectRatio="xMidYMid meet" version="1.2"><defs><clipPath id="bb2c039bf4"><path d="M 0 24 L 127 24 L 127 122.722656 L 0 122.722656 Z M 0 24 "/></clipPath><clipPath id="1a0251d593"><path d="M 61 4.683594 L 66 4.683594 L 66 19 L 61 19 Z M 61 4.683594 "/></clipPath></defs><g id="7bc448f797"><g clip-rule="nonzero" clip-path="url(#bb2c039bf4)"><path style=" stroke:none;fill-rule:nonzero;fill:#e60084;fill-opacity:1;" d="M 125.011719 57.128906 L 97.460938 29.574219 C 94.707031 26.824219 90.238281 26.824219 87.484375 29.574219 L 83.625 33.433594 C 81.222656 35.835938 80.917969 39.527344 82.683594 42.257812 L 80.046875 44.894531 C 73.296875 42.632812 66.308594 44.398438 62.589844 45.71875 C 61.53125 46.09375 60.542969 46.609375 59.625 47.246094 C 55.90625 44.707031 50.894531 44.117188 48.777344 44 L 44.402344 39.621094 C 46.164062 36.894531 45.859375 33.199219 43.460938 30.800781 L 39.601562 26.941406 C 36.847656 24.1875 32.375 24.1875 29.625 26.941406 L 2.070312 54.492188 C 0.730469 55.835938 0 57.597656 0 59.480469 C 0 61.363281 0.730469 63.128906 2.070312 64.46875 L 5.929688 68.328125 C 7.269531 69.671875 9.035156 70.398438 10.917969 70.398438 C 12.304688 70.398438 13.625 70 14.753906 69.269531 L 19.53125 74.046875 C 20.117188 75.152344 22.023438 78.5625 24.777344 81.789062 L 24.046875 82.515625 C 20.800781 85.765625 20.800781 91.082031 24.09375 94.398438 C 25.71875 96.023438 27.859375 96.847656 30 96.847656 C 30.046875 96.847656 30.117188 96.847656 30.164062 96.847656 C 30.140625 99.058594 30.941406 101.269531 32.636719 102.964844 C 34.328125 104.660156 36.402344 105.410156 38.542969 105.410156 C 39.058594 105.410156 39.578125 105.363281 40.09375 105.269531 C 40.328125 107.058594 41.082031 108.824219 42.496094 110.210938 C 44.117188 111.835938 46.257812 112.660156 48.402344 112.660156 C 48.917969 112.660156 49.4375 112.613281 49.953125 112.519531 C 50.1875 114.304688 50.941406 116.070312 52.355469 117.457031 C 53.976562 119.082031 56.117188 119.90625 58.257812 119.90625 C 58.800781 119.90625 59.367188 119.859375 59.90625 119.742188 L 60.09375 119.929688 C 61.648438 121.53125 63.765625 122.398438 66.023438 122.398438 C 68.28125 122.398438 70.378906 121.53125 71.976562 119.953125 C 73.625 118.304688 74.425781 116.164062 74.402344 113.976562 C 74.519531 113.976562 74.613281 114 74.707031 114 C 76.941406 114 79.058594 113.128906 80.660156 111.53125 C 82.046875 110.140625 82.800781 108.398438 83.011719 106.613281 C 83.53125 106.707031 84.046875 106.777344 84.589844 106.777344 C 86.824219 106.777344 88.941406 105.90625 90.519531 104.304688 C 92.1875 102.636719 93.011719 100.398438 92.964844 98.210938 C 93.011719 98.210938 93.082031 98.210938 93.128906 98.210938 C 96.046875 98.210938 98.730469 96.707031 100.285156 94.210938 C 101.859375 91.671875 101.859375 88.445312 100.449219 85.789062 C 105.128906 81.742188 108.09375 76.777344 108.847656 75.433594 L 112.332031 71.953125 C 113.460938 72.683594 114.777344 73.082031 116.167969 73.082031 C 118.046875 73.082031 119.8125 72.351562 121.15625 71.011719 L 125.011719 67.152344 C 126.355469 65.8125 127.082031 64.046875 127.082031 62.164062 C 127.082031 60.28125 126.355469 58.515625 125.011719 57.175781 Z M 9.246094 65.035156 L 5.386719 61.175781 C 4.941406 60.730469 4.707031 60.140625 4.707031 59.503906 C 4.707031 58.871094 4.941406 58.28125 5.386719 57.835938 L 32.941406 30.28125 C 33.386719 29.8125 34 29.597656 34.613281 29.597656 C 35.222656 29.597656 35.8125 29.835938 36.28125 30.28125 L 40.140625 34.140625 C 41.058594 35.058594 41.058594 36.539062 40.140625 37.457031 L 39.53125 38.070312 L 12.613281 64.988281 C 11.71875 65.882812 10.164062 65.882812 9.292969 64.988281 Z M 27.339844 91.011719 C 25.929688 89.601562 25.929688 87.269531 27.339844 85.859375 L 32 81.199219 C 32.707031 80.492188 33.625 80.140625 34.566406 80.140625 C 35.507812 80.140625 36.472656 80.515625 37.222656 81.269531 C 38.636719 82.683594 38.636719 85.011719 37.222656 86.421875 L 32.566406 91.082031 C 31.128906 92.492188 28.824219 92.515625 27.339844 91.035156 Z M 35.90625 99.578125 C 34.496094 98.164062 34.496094 95.835938 35.90625 94.421875 L 40.566406 89.765625 C 41.269531 89.058594 42.1875 88.707031 43.128906 88.707031 C 44.070312 88.707031 45.035156 89.082031 45.789062 89.835938 C 47.199219 91.246094 47.199219 93.578125 45.789062 94.988281 L 41.128906 99.648438 C 39.71875 101.058594 37.390625 101.058594 35.90625 99.601562 Z M 45.765625 106.800781 C 44.351562 105.386719 44.351562 103.058594 45.765625 101.648438 L 49.105469 98.304688 L 50.425781 96.988281 C 51.128906 96.28125 52.046875 95.929688 52.988281 95.929688 C 53.929688 95.929688 54.894531 96.304688 55.648438 97.058594 C 57.058594 98.46875 57.058594 100.800781 55.648438 102.210938 L 50.988281 106.871094 C 49.578125 108.28125 47.246094 108.304688 45.765625 106.824219 Z M 55.625 108.871094 L 58.964844 105.53125 L 60.28125 104.210938 C 60.988281 103.503906 61.90625 103.152344 62.847656 103.152344 C 63.789062 103.152344 64.753906 103.53125 65.507812 104.28125 C 66.917969 105.695312 66.917969 108.023438 65.507812 109.433594 L 60.847656 114.09375 C 59.4375 115.507812 57.105469 115.507812 55.625 114.046875 C 54.210938 112.636719 54.210938 110.304688 55.625 108.894531 Z M 68.636719 116.566406 C 67.53125 117.671875 65.765625 117.859375 64.402344 117.199219 L 68.847656 112.753906 C 69.011719 112.589844 69.105469 112.421875 69.246094 112.257812 C 69.976562 113.671875 69.8125 115.386719 68.636719 116.566406 Z M 96.285156 91.671875 C 95.058594 93.648438 92.117188 93.976562 90.519531 92.375 L 76.707031 78.5625 C 75.789062 77.648438 74.308594 77.648438 73.390625 78.5625 C 72.472656 79.480469 72.472656 80.964844 73.390625 81.882812 L 87.199219 95.695312 C 88.636719 97.128906 88.636719 99.480469 87.199219 100.917969 C 85.765625 102.351562 83.390625 102.328125 81.976562 100.917969 L 68.164062 87.105469 C 67.246094 86.1875 65.765625 86.1875 64.847656 87.105469 C 64.164062 87.789062 63.976562 88.800781 64.332031 89.671875 C 64.449219 89.953125 64.613281 90.210938 64.847656 90.445312 L 77.34375 102.941406 C 78.777344 104.375 78.777344 106.730469 77.34375 108.164062 C 75.953125 109.554688 73.648438 109.625 72.117188 108.164062 C 72.070312 108.117188 72.023438 108.046875 71.976562 108 L 71.246094 107.292969 C 71.367188 105.011719 70.566406 102.660156 68.800781 100.894531 C 66.777344 98.871094 63.953125 98.09375 61.316406 98.589844 C 61.082031 96.800781 60.332031 95.035156 58.917969 93.648438 C 56.894531 91.625 54.070312 90.847656 51.4375 91.339844 C 51.199219 89.550781 50.449219 87.789062 49.035156 86.398438 C 47.367188 84.730469 45.152344 83.929688 42.964844 83.976562 C 42.988281 81.765625 42.1875 79.550781 40.496094 77.859375 C 37.246094 74.613281 31.929688 74.585938 28.683594 77.859375 L 28.09375 78.445312 C 25.363281 75.175781 23.554688 71.648438 23.53125 71.597656 C 23.410156 71.363281 23.269531 71.175781 23.082031 70.988281 L 18.164062 66.070312 L 41.128906 43.105469 L 46.046875 48.023438 C 46.496094 48.46875 47.082031 48.707031 47.71875 48.707031 C 49.246094 48.707031 53.082031 49.105469 55.929688 50.585938 L 50.496094 56.023438 C 47.648438 58.871094 47.058594 63.292969 49.105469 66.539062 C 50.660156 69.035156 53.339844 70.539062 56.257812 70.539062 C 58.496094 70.539062 60.613281 69.671875 62.1875 68.070312 L 65.8125 64.445312 C 67.789062 62.46875 71.035156 62.46875 73.011719 64.445312 L 95.507812 86.941406 C 95.507812 86.941406 95.53125 86.964844 95.554688 86.988281 C 96.847656 88.304688 97.128906 90.257812 96.261719 91.671875 Z M 105.273438 72.304688 C 105.105469 72.46875 104.964844 72.660156 104.847656 72.871094 C 104.824219 72.917969 102 78.164062 97.390625 82.164062 L 76.355469 61.128906 C 74.449219 59.222656 71.929688 58.257812 69.4375 58.257812 C 66.941406 58.257812 64.425781 59.222656 62.519531 61.128906 L 58.894531 64.753906 C 57.269531 66.375 54.355469 66.023438 53.105469 64.046875 C 52.210938 62.632812 52.519531 60.660156 53.835938 59.339844 L 60.964844 52.210938 C 61.90625 51.269531 62.964844 50.585938 64.117188 50.1875 C 67.460938 48.988281 73.929688 47.363281 79.671875 49.835938 C 80.566406 50.210938 81.578125 50.023438 82.261719 49.339844 L 85.859375 45.742188 L 108.847656 68.730469 L 105.25 72.328125 Z M 121.671875 63.789062 L 117.8125 67.648438 C 116.917969 68.539062 115.367188 68.539062 114.496094 67.648438 L 86.964844 40.117188 C 86.046875 39.199219 86.046875 37.714844 86.964844 36.800781 L 90.824219 32.941406 C 91.273438 32.46875 91.882812 32.257812 92.496094 32.257812 C 93.105469 32.257812 93.695312 32.492188 94.164062 32.941406 L 121.71875 60.492188 C 122.167969 60.941406 122.402344 61.527344 122.402344 62.164062 C 122.402344 62.800781 122.167969 63.386719 121.71875 63.835938 Z M 121.671875 63.789062 "/></g><g clip-rule="nonzero" clip-path="url(#1a0251d593)"><path style=" stroke:none;fill-rule:nonzero;fill:#e60084;fill-opacity:1;" d="M 63.53125 18.824219 C 64.824219 18.824219 65.882812 17.761719 65.882812 16.46875 L 65.882812 7.058594 C 65.882812 5.761719 64.824219 4.703125 63.53125 4.703125 C 62.234375 4.703125 61.175781 5.761719 61.175781 7.058594 L 61.175781 16.46875 C 61.175781 17.761719 62.234375 18.824219 63.53125 18.824219 Z M 63.53125 18.824219 "/></g><path style=" stroke:none;fill-rule:nonzero;fill:#e60084;fill-opacity:1;" d="M 45.414062 22.445312 C 45.789062 23.339844 46.660156 23.90625 47.578125 23.90625 C 47.882812 23.90625 48.1875 23.859375 48.472656 23.714844 C 49.671875 23.222656 50.234375 21.835938 49.742188 20.632812 L 46.117188 11.953125 C 45.625 10.75 44.234375 10.1875 43.035156 10.679688 C 41.835938 11.175781 41.269531 12.5625 41.765625 13.761719 L 45.390625 22.445312 Z M 45.414062 22.445312 "/><path style=" stroke:none;fill-rule:nonzero;fill:#e60084;fill-opacity:1;" d="M 78.566406 23.714844 C 78.871094 23.835938 79.175781 23.90625 79.460938 23.90625 C 80.378906 23.90625 81.246094 23.363281 81.625 22.445312 L 85.25 13.761719 C 85.742188 12.5625 85.175781 11.175781 83.976562 10.679688 C 82.777344 10.1875 81.390625 10.75 80.894531 11.953125 L 77.273438 20.632812 C 76.777344 21.835938 77.34375 23.222656 78.542969 23.714844 Z M 78.566406 23.714844 "/></g></svg>