<svg xmlns="http://www.w3.org/2000/svg" xmlns:xlink="http://www.w3.org/1999/xlink" width="170" zoomAndPan="magnify" viewBox="0 0 127.5 127.499994" height="170" preserveAspectRatio="xMidYMid meet" version="1.2"><defs><clipPath id="27928e8a78"><path d="M 0 1 L 126 1 L 126 126 L 0 126 Z M 0 1 "/></clipPath><clipPath id="ea6949f4a7"><path d="M 52.195312 10.566406 C 50.484375 13.320312 50.484375 16.605469 51.929688 19.359375 C 52.730469 20.984375 53.910156 22.253906 55.472656 23.167969 C 59.804688 25.789062 65.445312 24.339844 68.070312 19.886719 C 68.59375 19.105469 68.851562 18.175781 69.121094 17.265625 L 85.394531 17.265625 C 85.648438 18.535156 86.039062 19.757812 86.574219 20.941406 C 87.414062 22.582031 88.550781 23.980469 89.984375 25.136719 L 78.394531 44.503906 C 75.605469 43.222656 72.671875 42.566406 69.601562 42.535156 C 58.707031 42.535156 49.78125 50.804688 48.734375 61.433594 L 26.214844 61.433594 C 25.949219 60.121094 25.558594 58.8125 25.039062 57.765625 C 24.257812 56.1875 23.074219 54.746094 21.761719 53.566406 L 30.160156 39.519531 C 31.058594 39.78125 31.976562 39.910156 32.914062 39.914062 C 38.03125 39.914062 42.101562 35.851562 42.101562 30.726562 C 42.074219 29.308594 41.765625 27.953125 41.179688 26.660156 C 39.605469 23.640625 36.457031 21.542969 32.910156 21.542969 C 27.789062 21.542969 23.722656 25.605469 23.722656 30.726562 C 23.75 32.144531 24.058594 33.5 24.644531 34.792969 C 25.140625 35.710938 25.75 36.542969 26.480469 37.289062 L 18.082031 51.332031 C 16.636719 50.808594 14.929688 50.414062 13.226562 50.414062 C 12.363281 50.417969 11.511719 50.503906 10.664062 50.671875 C 9.816406 50.84375 8.996094 51.09375 8.199219 51.425781 C 7.402344 51.757812 6.644531 52.164062 5.929688 52.644531 C 5.210938 53.125 4.550781 53.671875 3.941406 54.285156 C 3.332031 54.894531 2.785156 55.558594 2.308594 56.277344 C 1.828125 56.996094 1.425781 57.753906 1.09375 58.550781 C 0.765625 59.347656 0.515625 60.171875 0.347656 61.019531 C 0.179688 61.863281 0.0976562 62.71875 0.0976562 63.582031 C 0.0976562 65.6875 0.621094 67.644531 1.410156 69.355469 C 1.949219 70.464844 2.628906 71.472656 3.453125 72.386719 C 4.277344 73.304688 5.210938 74.085938 6.257812 74.734375 C 7.300781 75.386719 8.417969 75.878906 9.601562 76.214844 C 10.785156 76.546875 11.992188 76.714844 13.222656 76.707031 C 14.933594 76.707031 16.632812 76.316406 18.078125 75.789062 L 26.472656 89.832031 C 25.589844 90.691406 24.90625 91.695312 24.429688 92.832031 C 23.949219 93.972656 23.714844 95.160156 23.71875 96.394531 C 23.746094 97.8125 24.050781 99.167969 24.640625 100.460938 C 26.082031 103.480469 29.238281 105.578125 32.910156 105.578125 C 38.027344 105.578125 42.09375 101.519531 42.09375 96.394531 C 42.070312 94.976562 41.761719 93.621094 41.175781 92.328125 C 39.597656 89.308594 36.453125 87.207031 32.90625 87.207031 C 31.984375 87.207031 30.9375 87.339844 30.148438 87.601562 L 21.753906 73.554688 C 22.945312 72.554688 23.925781 71.378906 24.695312 70.023438 C 25.464844 68.667969 25.96875 67.21875 26.214844 65.683594 L 48.789062 65.683594 C 49.054688 68.304688 49.710938 70.671875 50.894531 72.898438 C 54.304688 79.847656 61.390625 84.582031 69.660156 84.582031 C 72.8125 84.582031 75.828125 83.925781 78.453125 82.613281 L 90.003906 102.042969 C 87.554688 104.144531 85.941406 106.894531 85.402344 109.921875 L 69 109.789062 C 68.867188 109.132812 68.609375 108.34375 68.34375 107.683594 C 68.210938 107.417969 68.078125 107.292969 68.078125 107.160156 C 65.457031 102.828125 59.808594 101.386719 55.484375 103.882812 C 54.992188 104.171875 54.53125 104.507812 54.097656 104.886719 C 53.667969 105.261719 53.277344 105.675781 52.925781 106.128906 C 52.574219 106.582031 52.265625 107.058594 52.003906 107.570312 C 51.742188 108.078125 51.53125 108.605469 51.367188 109.15625 C 51.203125 109.703125 51.09375 110.261719 51.035156 110.832031 C 50.976562 111.402344 50.972656 111.972656 51.023438 112.542969 C 51.070312 113.113281 51.171875 113.675781 51.328125 114.226562 C 51.480469 114.777344 51.6875 115.308594 51.941406 115.820312 C 52.074219 116.085938 52.203125 116.214844 52.203125 116.476562 C 54.828125 120.808594 60.476562 122.25 64.800781 119.757812 C 67.03125 118.445312 68.472656 116.34375 69 113.980469 L 85.402344 114.246094 C 85.667969 115.558594 86.058594 116.867188 86.578125 118.054688 L 86.96875 118.835938 C 90.640625 125.132812 98.648438 127.105469 104.949219 123.4375 C 110.855469 119.894531 113.085938 112.410156 110.066406 106.246094 L 109.675781 105.460938 C 108.753906 104.019531 107.707031 102.707031 106.398438 101.792969 L 114.136719 87.355469 C 115.332031 87.699219 116.542969 87.789062 117.777344 87.628906 C 119.007812 87.46875 120.15625 87.070312 121.222656 86.4375 C 121.71875 86.144531 122.179688 85.808594 122.609375 85.433594 C 123.039062 85.054688 123.429688 84.640625 123.78125 84.1875 C 124.132812 83.738281 124.441406 83.257812 124.703125 82.746094 C 124.964844 82.238281 125.175781 81.710938 125.339844 81.160156 C 125.503906 80.613281 125.613281 80.054688 125.671875 79.484375 C 125.730469 78.914062 125.734375 78.34375 125.683594 77.773438 C 125.636719 77.203125 125.535156 76.644531 125.378906 76.089844 C 125.226562 75.539062 125.019531 75.007812 124.765625 74.496094 C 124.636719 74.230469 124.503906 74.105469 124.503906 73.839844 C 121.878906 69.507812 116.234375 68.066406 111.90625 70.5625 C 111.414062 70.851562 110.953125 71.1875 110.523438 71.566406 C 110.09375 71.941406 109.703125 72.355469 109.347656 72.808594 C 108.996094 73.257812 108.691406 73.738281 108.429688 74.25 C 108.164062 74.757812 107.953125 75.285156 107.789062 75.835938 C 107.628906 76.382812 107.515625 76.941406 107.460938 77.511719 C 107.402344 78.082031 107.398438 78.652344 107.445312 79.222656 C 107.496094 79.792969 107.597656 80.355469 107.75 80.90625 C 107.90625 81.457031 108.109375 81.988281 108.363281 82.5 C 108.496094 82.765625 108.628906 82.894531 108.628906 83.023438 C 109.152344 83.808594 109.679688 84.601562 110.464844 85.257812 L 102.722656 99.691406 C 101.257812 99.15625 99.742188 98.898438 98.183594 98.921875 C 96.621094 98.945312 95.117188 99.246094 93.667969 99.824219 L 82.121094 80.398438 C 87.238281 76.726562 90.648438 70.5625 90.648438 63.597656 C 90.648438 60.1875 89.867188 57.039062 88.417969 54.28125 C 86.925781 51.191406 84.78125 48.65625 81.988281 46.671875 L 93.535156 27.242188 C 94.984375 27.820312 96.488281 28.121094 98.050781 28.144531 C 99.609375 28.167969 101.125 27.910156 102.589844 27.375 L 110.332031 41.8125 C 109.613281 42.46875 109.003906 43.214844 108.496094 44.042969 C 106.78125 46.796875 106.78125 50.082031 108.230469 52.835938 C 109.03125 54.460938 110.210938 55.730469 111.773438 56.644531 C 116.105469 59.265625 121.746094 57.816406 124.371094 53.363281 C 126.082031 50.609375 126.082031 47.324219 124.636719 44.570312 C 124.40625 44.09375 124.136719 43.644531 123.824219 43.214844 C 123.515625 42.789062 123.171875 42.390625 122.792969 42.023438 C 122.414062 41.65625 122.003906 41.324219 121.566406 41.027344 C 121.128906 40.734375 120.667969 40.476562 120.183594 40.261719 C 119.703125 40.050781 119.203125 39.878906 118.691406 39.75 C 118.179688 39.625 117.660156 39.542969 117.132812 39.507812 C 116.605469 39.472656 116.078125 39.484375 115.554688 39.539062 C 115.027344 39.597656 114.511719 39.699219 114.007812 39.847656 L 106.265625 25.414062 C 107.574219 24.359375 108.628906 23.179688 109.542969 21.742188 C 111.90625 17.804688 111.90625 13.082031 109.933594 9.273438 C 109.445312 8.117188 108.785156 7.066406 107.953125 6.125 C 107.125 5.179688 106.167969 4.394531 105.082031 3.761719 C 98.78125 0.09375 90.777344 2.1875 87.101562 8.363281 C 86.195312 9.816406 85.625 11.390625 85.394531 13.085938 L 68.988281 13.21875 C 68.832031 12.542969 68.613281 11.886719 68.335938 11.25 C 67.535156 9.625 66.355469 8.355469 64.792969 7.445312 C 64.273438 7.132812 63.730469 6.878906 63.164062 6.675781 C 62.597656 6.472656 62.015625 6.328125 61.417969 6.242188 C 60.824219 6.152344 60.222656 6.125 59.621094 6.152344 C 59.019531 6.183594 58.425781 6.273438 57.84375 6.417969 C 57.257812 6.5625 56.691406 6.765625 56.148438 7.023438 C 55.605469 7.28125 55.089844 7.589844 54.605469 7.945312 C 54.121094 8.304688 53.675781 8.707031 53.269531 9.152344 C 52.863281 9.597656 52.507812 10.078125 52.195312 10.59375 Z M 27.921875 30.777344 C 27.921875 29.464844 28.445312 28.152344 29.367188 27.234375 C 30.285156 26.3125 31.597656 25.789062 32.910156 25.789062 C 34.875 25.789062 36.578125 26.839844 37.371094 28.542969 C 37.765625 29.199219 37.894531 29.988281 37.894531 30.777344 C 37.894531 31.101562 37.863281 31.425781 37.800781 31.75 C 37.734375 32.070312 37.640625 32.382812 37.515625 32.683594 C 37.390625 32.984375 37.234375 33.273438 37.054688 33.546875 C 36.871094 33.816406 36.664062 34.070312 36.433594 34.300781 C 36.203125 34.53125 35.949219 34.738281 35.679688 34.921875 C 35.40625 35.101562 35.121094 35.257812 34.816406 35.382812 C 34.515625 35.507812 34.203125 35.601562 33.882812 35.664062 C 33.5625 35.730469 33.238281 35.761719 32.910156 35.761719 C 30.941406 35.761719 29.238281 34.710938 28.445312 33.007812 C 28.054688 32.351562 27.921875 31.5625 27.921875 30.777344 Z M 32.914062 91.457031 C 34.882812 91.457031 36.585938 92.507812 37.378906 94.210938 C 37.769531 94.867188 37.902344 95.65625 37.902344 96.441406 C 37.902344 96.769531 37.867188 97.09375 37.804688 97.414062 C 37.742188 97.738281 37.644531 98.046875 37.519531 98.351562 C 37.394531 98.652344 37.242188 98.941406 37.058594 99.210938 C 36.878906 99.484375 36.671875 99.734375 36.4375 99.96875 C 36.207031 100.199219 35.957031 100.40625 35.683594 100.585938 C 35.410156 100.769531 35.125 100.921875 34.820312 101.046875 C 34.519531 101.175781 34.207031 101.269531 33.886719 101.332031 C 33.566406 101.398438 33.242188 101.429688 32.914062 101.429688 C 30.949219 101.429688 29.246094 100.378906 28.453125 98.675781 C 28.058594 98.019531 27.929688 97.230469 27.929688 96.441406 C 27.929688 95.132812 28.453125 93.820312 29.371094 92.898438 C 30.292969 91.980469 31.601562 91.457031 32.914062 91.457031 Z M 55.878906 114.554688 C 55.878906 114.421875 55.746094 114.289062 55.746094 114.289062 C 54.574219 111.925781 55.484375 109.171875 57.714844 107.734375 C 58.890625 107.078125 60.160156 106.8125 61.523438 107.207031 C 62.8125 107.570312 63.816406 108.3125 64.542969 109.441406 C 64.542969 109.574219 64.675781 109.703125 64.675781 109.703125 C 65.847656 112.066406 64.9375 114.957031 62.707031 116.261719 C 60.34375 117.707031 57.195312 116.917969 55.878906 114.550781 Z M 104.832031 108.386719 C 104.960938 108.519531 104.960938 108.652344 105.09375 108.910156 C 106.808594 112.453125 105.617188 116.652344 102.160156 118.621094 C 101.734375 118.871094 101.292969 119.074219 100.832031 119.238281 C 100.367188 119.398438 99.894531 119.515625 99.40625 119.582031 C 98.921875 119.652344 98.433594 119.671875 97.945312 119.648438 C 97.457031 119.621094 96.972656 119.546875 96.5 119.421875 C 96.023438 119.300781 95.566406 119.136719 95.121094 118.921875 C 94.679688 118.710938 94.261719 118.457031 93.871094 118.164062 C 93.476562 117.871094 93.117188 117.542969 92.789062 117.175781 C 92.460938 116.8125 92.171875 116.417969 91.921875 115.996094 C 91.789062 115.867188 91.789062 115.734375 91.65625 115.472656 C 89.945312 111.929688 91.132812 107.734375 94.59375 105.765625 C 96.304688 104.714844 98.261719 104.453125 100.234375 104.980469 C 102.207031 105.511719 103.777344 106.695312 104.835938 108.394531 Z M 112.316406 81.09375 C 112.316406 80.960938 112.1875 80.828125 112.1875 80.828125 C 111.011719 78.464844 111.921875 75.578125 114.152344 74.269531 C 115.328125 73.613281 116.601562 73.351562 117.960938 73.746094 C 119.25 74.109375 120.253906 74.851562 120.980469 75.976562 C 120.980469 76.109375 121.113281 76.242188 121.113281 76.242188 C 122.285156 78.605469 121.375 81.359375 119.144531 82.800781 C 118.863281 82.96875 118.570312 83.109375 118.261719 83.222656 C 117.957031 83.335938 117.640625 83.414062 117.316406 83.464844 C 116.992188 83.515625 116.667969 83.53125 116.339844 83.515625 C 116.015625 83.5 115.691406 83.453125 115.375 83.375 C 115.054688 83.292969 114.75 83.183594 114.453125 83.042969 C 114.160156 82.902344 113.878906 82.734375 113.617188 82.539062 C 113.355469 82.34375 113.113281 82.125 112.894531 81.878906 C 112.675781 81.636719 112.484375 81.375 112.316406 81.09375 Z M 13.222656 71.058594 C 10.285156 71.058594 7.839844 69.484375 6.527344 66.859375 C 6.003906 65.808594 5.746094 64.757812 5.746094 63.582031 C 5.746094 59.519531 9.15625 56.09375 13.234375 56.09375 C 16.167969 56.09375 18.617188 57.671875 19.925781 60.292969 C 20.449219 61.347656 20.710938 62.398438 20.710938 63.574219 C 20.710938 65.539062 19.925781 67.511719 18.476562 68.824219 C 17.167969 70.265625 15.199219 71.054688 13.226562 71.054688 Z M 81.464844 63.574219 C 81.464844 66.722656 80.289062 69.738281 78.054688 71.96875 C 75.816406 74.203125 72.800781 75.382812 69.65625 75.382812 C 68.554688 75.378906 67.472656 75.226562 66.410156 74.921875 C 65.351562 74.621094 64.351562 74.179688 63.414062 73.601562 C 62.476562 73.023438 61.636719 72.324219 60.890625 71.511719 C 60.144531 70.703125 59.523438 69.804688 59.027344 68.820312 C 58.226562 67.160156 57.832031 65.410156 57.847656 63.566406 C 57.847656 60.417969 59.023438 57.402344 61.257812 55.171875 C 63.496094 52.9375 66.507812 51.757812 69.65625 51.757812 C 70.757812 51.761719 71.839844 51.914062 72.898438 52.21875 C 73.960938 52.519531 74.957031 52.960938 75.898438 53.539062 C 76.835938 54.121094 77.675781 54.816406 78.421875 55.628906 C 79.167969 56.441406 79.789062 57.335938 80.285156 58.320312 C 81.066406 60.035156 81.457031 61.734375 81.457031 63.574219 Z M 119.128906 44.414062 C 119.957031 44.953125 120.613281 45.652344 121.097656 46.515625 C 121.878906 48.089844 121.753906 49.792969 120.964844 51.234375 C 120.796875 51.519531 120.605469 51.78125 120.386719 52.023438 C 120.167969 52.269531 119.929688 52.488281 119.664062 52.683594 C 119.402344 52.878906 119.125 53.046875 118.828125 53.1875 C 118.53125 53.328125 118.226562 53.4375 117.910156 53.515625 C 117.589844 53.597656 117.269531 53.644531 116.941406 53.660156 C 116.613281 53.675781 116.289062 53.660156 115.964844 53.609375 C 115.640625 53.558594 115.328125 53.480469 115.019531 53.367188 C 114.710938 53.253906 114.417969 53.113281 114.136719 52.945312 C 113.3125 52.402344 112.65625 51.703125 112.171875 50.84375 C 111.386719 49.269531 111.515625 47.566406 112.304688 46.121094 C 112.46875 45.839844 112.664062 45.578125 112.878906 45.335938 C 113.097656 45.089844 113.339844 44.871094 113.601562 44.675781 C 113.863281 44.480469 114.144531 44.3125 114.4375 44.171875 C 114.734375 44.03125 115.042969 43.921875 115.359375 43.839844 C 115.675781 43.761719 116 43.714844 116.324219 43.699219 C 116.652344 43.683594 116.976562 43.699219 117.300781 43.75 C 117.625 43.796875 117.941406 43.878906 118.25 43.992188 C 118.554688 44.101562 118.851562 44.246094 119.128906 44.414062 Z M 102.199219 8.59375 C 103.507812 9.375 104.429688 10.429688 105.132812 11.746094 C 105.417969 12.296875 105.628906 12.875 105.765625 13.480469 C 105.902344 14.089844 105.957031 14.703125 105.9375 15.324219 C 105.914062 15.945312 105.808594 16.550781 105.628906 17.144531 C 105.449219 17.742188 105.195312 18.300781 104.871094 18.832031 C 104.617188 19.253906 104.328125 19.644531 104 20.011719 C 103.675781 20.375 103.3125 20.703125 102.921875 20.996094 C 102.527344 21.292969 102.109375 21.542969 101.667969 21.757812 C 101.226562 21.96875 100.769531 22.136719 100.292969 22.257812 C 99.816406 22.378906 99.335938 22.453125 98.847656 22.480469 C 98.355469 22.507812 97.867188 22.484375 97.382812 22.417969 C 96.898438 22.347656 96.421875 22.234375 95.960938 22.070312 C 95.496094 21.910156 95.054688 21.703125 94.632812 21.453125 C 93.320312 20.671875 92.402344 19.617188 91.695312 18.300781 C 90.523438 16.070312 90.644531 13.449219 91.960938 11.214844 C 92.210938 10.792969 92.5 10.402344 92.828125 10.039062 C 93.15625 9.671875 93.515625 9.34375 93.910156 9.050781 C 94.300781 8.753906 94.71875 8.503906 95.160156 8.289062 C 95.605469 8.078125 96.0625 7.914062 96.539062 7.789062 C 97.011719 7.667969 97.496094 7.59375 97.984375 7.566406 C 98.472656 7.539062 98.960938 7.5625 99.449219 7.628906 C 99.933594 7.699219 100.40625 7.816406 100.871094 7.976562 C 101.332031 8.140625 101.773438 8.34375 102.199219 8.59375 Z M 58.890625 10.429688 C 60.199219 10.035156 61.511719 10.296875 62.695312 10.953125 C 63.523438 11.492188 64.179688 12.191406 64.664062 13.050781 C 65.445312 14.628906 65.320312 16.332031 64.53125 17.773438 C 63.875 18.949219 62.820312 19.742188 61.511719 20.003906 C 60.199219 20.398438 58.890625 20.136719 57.707031 19.480469 C 56.878906 18.941406 56.222656 18.242188 55.738281 17.382812 C 54.957031 15.804688 55.082031 14.105469 55.871094 12.660156 C 56.59375 11.535156 57.601562 10.789062 58.890625 10.429688 Z M 58.890625 10.429688 "/></clipPath><clipPath id="e980e54d04"><rect x="0" width="127" y="0" height="127"/></clipPath></defs><g id="72db1ddc85"><g transform="matrix(1,0,0,1,0,0.000000000000007293)"><g clip-path="url(#e980e54d04)"><g clip-rule="nonzero" clip-path="url(#27928e8a78)"><g clip-rule="nonzero" clip-path="url(#ea6949f4a7)"><path style=" stroke:none;fill-rule:nonzero;fill:#e60084;fill-opacity:1;" d="M 0.0976562 0.09375 L 0.0976562 126.941406 L 126.082031 126.941406 L 126.082031 0.09375 Z M 0.0976562 0.09375 "/></g></g></g></g></g></svg>