<svg xmlns="http://www.w3.org/2000/svg" xmlns:xlink="http://www.w3.org/1999/xlink" width="170" zoomAndPan="magnify" viewBox="0 0 127.5 127.499994" height="170" preserveAspectRatio="xMidYMid meet" version="1.2"><g id="0f23de2afb"><path style=" stroke:none;fill-rule:nonzero;fill:#fdca14;fill-opacity:1;" d="M 48.054688 23.363281 L 47.96875 23.125 C 47.476562 23.300781 46.980469 23.492188 46.492188 23.6875 L 46.589844 23.921875 C 47.058594 23.722656 47.550781 23.539062 48.054688 23.363281 Z M 48.054688 23.363281 "/><path style=" stroke:none;fill-rule:nonzero;fill:#fdca14;fill-opacity:1;" d="M 51.03125 22.390625 L 50.960938 22.136719 C 50.453125 22.28125 49.945312 22.4375 49.441406 22.597656 L 49.515625 22.851562 C 50.023438 22.691406 50.53125 22.535156 51.03125 22.390625 Z M 51.03125 22.390625 "/><path style=" stroke:none;fill-rule:nonzero;fill:#fdca14;fill-opacity:1;" d="M 42.316406 25.925781 L 42.195312 25.699219 C 41.734375 25.953125 41.273438 26.207031 40.824219 26.476562 L 40.953125 26.695312 C 41.402344 26.429688 41.855469 26.171875 42.316406 25.925781 Z M 42.316406 25.925781 "/><path style=" stroke:none;fill-rule:nonzero;fill:#fdca14;fill-opacity:1;" d="M 45.136719 24.539062 L 45.03125 24.308594 C 44.550781 24.519531 44.070312 24.746094 43.601562 24.976562 L 43.710938 25.203125 C 44.183594 24.972656 44.65625 24.753906 45.136719 24.539062 Z M 45.136719 24.539062 "/><path style=" stroke:none;fill-rule:nonzero;fill:#fdca14;fill-opacity:1;" d="M 63.414062 20.453125 L 63.414062 20.199219 C 62.886719 20.222656 62.355469 20.25 61.835938 20.285156 L 61.855469 20.539062 C 62.363281 20.503906 62.890625 20.476562 63.414062 20.453125 Z M 63.414062 20.453125 "/><path style=" stroke:none;fill-rule:nonzero;fill:#fdca14;fill-opacity:1;" d="M 60.28125 20.664062 L 60.253906 20.410156 C 59.730469 20.460938 59.207031 20.519531 58.6875 20.582031 L 58.71875 20.835938 C 59.230469 20.769531 59.757812 20.714844 60.28125 20.664062 Z M 60.28125 20.664062 "/><path style=" stroke:none;fill-rule:nonzero;fill:#fdca14;fill-opacity:1;" d="M 54.074219 21.625 L 54.023438 21.371094 C 53.515625 21.484375 52.992188 21.605469 52.488281 21.730469 L 52.546875 21.984375 C 53.050781 21.855469 53.5625 21.738281 54.074219 21.625 Z M 54.074219 21.625 "/><path style=" stroke:none;fill-rule:nonzero;fill:#fdca14;fill-opacity:1;" d="M 57.164062 21.050781 L 57.125 20.800781 C 56.605469 20.878906 56.082031 20.964844 55.570312 21.050781 L 55.613281 21.304688 C 56.125 21.21875 56.644531 21.132812 57.164062 21.050781 Z M 57.164062 21.050781 "/><path style=" stroke:none;fill-rule:nonzero;fill:#fdca14;fill-opacity:1;" d="M 32.355469 33.496094 L 32.175781 33.324219 C 31.816406 33.699219 31.453125 34.082031 31.105469 34.484375 L 31.292969 34.65625 C 31.640625 34.261719 31.996094 33.875 32.355469 33.496094 Z M 32.355469 33.496094 "/><path style=" stroke:none;fill-rule:nonzero;fill:#fdca14;fill-opacity:1;" d="M 26.703125 41 L 26.480469 40.871094 C 26.226562 41.324219 25.957031 41.785156 25.722656 42.246094 L 25.945312 42.367188 C 26.179688 41.90625 26.441406 41.449219 26.703125 41 Z M 26.703125 41 "/><path style=" stroke:none;fill-rule:nonzero;fill:#fdca14;fill-opacity:1;" d="M 24.316406 45.085938 L 24.550781 45.191406 C 24.761719 44.710938 24.984375 44.230469 25.214844 43.765625 L 24.988281 43.652344 C 24.757812 44.121094 24.53125 44.605469 24.316406 45.085938 Z M 24.316406 45.085938 "/><path style=" stroke:none;fill-rule:nonzero;fill:#fdca14;fill-opacity:1;" d="M 23.136719 48.019531 L 23.375 48.105469 C 23.554688 47.609375 23.746094 47.117188 23.933594 46.632812 L 23.703125 46.539062 C 23.503906 47.023438 23.316406 47.523438 23.136719 48.019531 Z M 23.136719 48.019531 "/><path style=" stroke:none;fill-rule:nonzero;fill:#fdca14;fill-opacity:1;" d="M 28.394531 38.355469 L 28.183594 38.210938 C 27.886719 38.644531 27.59375 39.082031 27.304688 39.523438 L 27.523438 39.660156 C 27.800781 39.222656 28.097656 38.785156 28.394531 38.355469 Z M 28.394531 38.355469 "/><path style=" stroke:none;fill-rule:nonzero;fill:#fdca14;fill-opacity:1;" d="M 30.277344 35.851562 L 30.082031 35.691406 C 29.753906 36.097656 29.425781 36.515625 29.109375 36.933594 L 29.308594 37.085938 C 29.625 36.671875 29.949219 36.253906 30.277344 35.851562 Z M 30.277344 35.851562 "/><path style=" stroke:none;fill-rule:nonzero;fill:#fdca14;fill-opacity:1;" d="M 39.617188 27.527344 L 39.480469 27.3125 C 39.035156 27.597656 38.59375 27.890625 38.167969 28.195312 L 38.308594 28.402344 C 38.738281 28.097656 39.183594 27.800781 39.617188 27.527344 Z M 39.617188 27.527344 "/><path style=" stroke:none;fill-rule:nonzero;fill:#fdca14;fill-opacity:1;" d="M 37.039062 29.320312 L 36.890625 29.113281 C 36.46875 29.433594 36.050781 29.765625 35.648438 30.097656 L 35.8125 30.292969 C 36.214844 29.960938 36.628906 29.632812 37.039062 29.320312 Z M 37.039062 29.320312 "/><path style=" stroke:none;fill-rule:nonzero;fill:#fdca14;fill-opacity:1;" d="M 34.621094 31.328125 L 34.449219 31.140625 C 34.0625 31.488281 33.671875 31.847656 33.292969 32.214844 L 33.472656 32.398438 C 33.84375 32.023438 34.230469 31.664062 34.621094 31.328125 Z M 34.621094 31.328125 "/><path style=" stroke:none;fill-rule:nonzero;fill:#fdca14;fill-opacity:1;" d="M 101.898438 43.660156 C 101.65625 43.195312 101.40625 42.730469 101.136719 42.269531 L 100.914062 42.394531 C 101.167969 42.851562 101.421875 43.3125 101.660156 43.777344 Z M 101.898438 43.660156 "/><path style=" stroke:none;fill-rule:nonzero;fill:#fdca14;fill-opacity:1;" d="M 98.605469 38.277344 C 98.296875 37.851562 97.980469 37.425781 97.660156 37.011719 L 97.457031 37.167969 C 97.777344 37.578125 98.09375 38 98.394531 38.433594 Z M 98.605469 38.277344 "/><path style=" stroke:none;fill-rule:nonzero;fill:#fdca14;fill-opacity:1;" d="M 92.289062 31.230469 C 91.898438 30.882812 91.496094 30.53125 91.089844 30.199219 L 90.929688 30.394531 C 91.328125 30.726562 91.730469 31.070312 92.117188 31.40625 Z M 92.289062 31.230469 "/><path style=" stroke:none;fill-rule:nonzero;fill:#fdca14;fill-opacity:1;" d="M 94.378906 33.609375 L 94.5625 33.433594 C 94.195312 33.054688 93.820312 32.671875 93.441406 32.316406 L 93.269531 32.5 C 93.644531 32.847656 94.015625 33.230469 94.378906 33.609375 Z M 94.378906 33.609375 "/><path style=" stroke:none;fill-rule:nonzero;fill:#fdca14;fill-opacity:1;" d="M 100.347656 40.910156 C 100.074219 40.460938 99.789062 40.015625 99.5 39.578125 L 99.289062 39.71875 C 99.578125 40.152344 99.863281 40.597656 100.132812 41.039062 Z M 100.347656 40.910156 "/><path style=" stroke:none;fill-rule:nonzero;fill:#fdca14;fill-opacity:1;" d="M 96.46875 35.945312 L 96.65625 35.777344 C 96.324219 35.375 95.976562 34.972656 95.628906 34.585938 L 95.4375 34.753906 C 95.796875 35.128906 96.144531 35.539062 96.46875 35.945312 Z M 96.46875 35.945312 "/><path style=" stroke:none;fill-rule:nonzero;fill:#fdca14;fill-opacity:1;" d="M 104.371094 49.464844 C 104.199219 48.957031 104.019531 48.46875 103.828125 47.976562 L 103.59375 48.070312 C 103.78125 48.554688 103.960938 49.054688 104.128906 49.546875 Z M 104.371094 49.464844 "/><path style=" stroke:none;fill-rule:nonzero;fill:#fdca14;fill-opacity:1;" d="M 22.238281 50.792969 L 22.492188 50.792969 C 22.605469 50.390625 22.730469 49.988281 22.855469 49.59375 L 22.617188 49.515625 C 22.496094 49.933594 22.363281 50.367188 22.238281 50.792969 Z M 22.238281 50.792969 "/><path style=" stroke:none;fill-rule:nonzero;fill:#fdca14;fill-opacity:1;" d="M 103.238281 46.519531 C 103.035156 46.035156 102.8125 45.550781 102.59375 45.078125 L 102.367188 45.183594 C 102.585938 45.65625 102.800781 46.136719 103.003906 46.617188 Z M 103.238281 46.519531 "/><path style=" stroke:none;fill-rule:nonzero;fill:#fdca14;fill-opacity:1;" d="M 87.289062 27.363281 C 86.851562 27.074219 86.402344 26.789062 85.953125 26.515625 L 85.820312 26.734375 C 86.269531 27.003906 86.714844 27.289062 87.148438 27.578125 Z M 87.289062 27.363281 "/><path style=" stroke:none;fill-rule:nonzero;fill:#fdca14;fill-opacity:1;" d="M 78.863281 23.027344 C 78.355469 22.839844 77.867188 22.660156 77.371094 22.488281 L 77.289062 22.742188 C 77.796875 22.90625 78.285156 23.085938 78.769531 23.273438 Z M 78.863281 23.027344 "/><path style=" stroke:none;fill-rule:nonzero;fill:#fdca14;fill-opacity:1;" d="M 72.8125 21.210938 C 72.304688 21.101562 71.777344 20.996094 71.261719 20.902344 L 71.21875 21.152344 C 71.722656 21.246094 72.25 21.355469 72.757812 21.464844 Z M 72.8125 21.210938 "/><path style=" stroke:none;fill-rule:nonzero;fill:#fdca14;fill-opacity:1;" d="M 75.867188 22.007812 C 75.363281 21.859375 74.855469 21.714844 74.347656 21.582031 L 74.28125 21.835938 C 74.789062 21.96875 75.296875 22.109375 75.804688 22.257812 Z M 75.867188 22.007812 "/><path style=" stroke:none;fill-rule:nonzero;fill:#fdca14;fill-opacity:1;" d="M 69.703125 20.648438 C 69.183594 20.570312 68.660156 20.503906 68.136719 20.449219 L 68.109375 20.703125 C 68.628906 20.757812 69.15625 20.824219 69.667969 20.902344 Z M 69.703125 20.648438 "/><path style=" stroke:none;fill-rule:nonzero;fill:#fdca14;fill-opacity:1;" d="M 81.765625 24.265625 C 81.289062 24.042969 80.804688 23.824219 80.320312 23.621094 L 80.21875 23.851562 C 80.699219 24.058594 81.1875 24.273438 81.65625 24.496094 Z M 81.765625 24.265625 "/><path style=" stroke:none;fill-rule:nonzero;fill:#fdca14;fill-opacity:1;" d="M 66.558594 20.308594 C 66.035156 20.273438 65.503906 20.242188 64.984375 20.226562 L 64.984375 20.480469 C 65.503906 20.496094 66.03125 20.523438 66.550781 20.5625 Z M 66.558594 20.308594 "/><path style=" stroke:none;fill-rule:nonzero;fill:#fdca14;fill-opacity:1;" d="M 84.589844 25.714844 C 84.132812 25.460938 83.664062 25.207031 83.195312 24.953125 L 83.078125 25.179688 C 83.542969 25.433594 84.007812 25.671875 84.464844 25.9375 Z M 84.589844 25.714844 "/><path style=" stroke:none;fill-rule:nonzero;fill:#fdca14;fill-opacity:1;" d="M 89.859375 29.207031 C 89.445312 28.882812 89.011719 28.566406 88.59375 28.261719 L 88.441406 28.46875 C 88.867188 28.773438 89.292969 29.085938 89.710938 29.410156 Z M 89.859375 29.207031 "/><path style=" stroke:none;fill-rule:nonzero;fill:#fdca14;fill-opacity:1;" d="M 63.472656 106.582031 L 63.472656 106.835938 C 64 106.835938 64.53125 106.835938 65.054688 106.804688 L 65.054688 106.550781 C 64.53125 106.570312 63.996094 106.582031 63.472656 106.582031 Z M 63.472656 106.582031 "/><path style=" stroke:none;fill-rule:nonzero;fill:#fdca14;fill-opacity:1;" d="M 81.707031 102.519531 L 81.816406 102.75 C 82.289062 102.523438 82.765625 102.292969 83.230469 102.050781 L 83.113281 101.824219 C 82.652344 102.0625 82.175781 102.296875 81.707031 102.519531 Z M 81.707031 102.519531 "/><path style=" stroke:none;fill-rule:nonzero;fill:#fdca14;fill-opacity:1;" d="M 84.492188 101.082031 L 84.617188 101.304688 C 85.070312 101.050781 85.527344 100.777344 85.976562 100.503906 L 85.84375 100.289062 C 85.398438 100.5625 84.945312 100.828125 84.492188 101.082031 Z M 84.492188 101.082031 "/><path style=" stroke:none;fill-rule:nonzero;fill:#fdca14;fill-opacity:1;" d="M 87.167969 99.441406 L 87.308594 99.65625 C 87.742188 99.367188 88.175781 99.0625 88.605469 98.757812 L 88.457031 98.550781 C 88.035156 98.855469 87.597656 99.15625 87.167969 99.441406 Z M 87.167969 99.441406 "/><path style=" stroke:none;fill-rule:nonzero;fill:#fdca14;fill-opacity:1;" d="M 66.613281 106.464844 L 66.628906 106.71875 C 67.148438 106.683594 67.683594 106.632812 68.203125 106.574219 L 68.175781 106.320312 C 67.65625 106.378906 67.132812 106.429688 66.613281 106.464844 Z M 66.613281 106.464844 "/><path style=" stroke:none;fill-rule:nonzero;fill:#fdca14;fill-opacity:1;" d="M 72.820312 105.554688 L 72.875 105.808594 C 73.382812 105.695312 73.902344 105.570312 74.410156 105.4375 L 74.34375 105.183594 C 73.839844 105.320312 73.328125 105.441406 72.820312 105.554688 Z M 72.820312 105.554688 "/><path style=" stroke:none;fill-rule:nonzero;fill:#fdca14;fill-opacity:1;" d="M 69.730469 106.125 L 69.769531 106.378906 C 70.277344 106.308594 70.8125 106.21875 71.328125 106.125 L 71.28125 105.875 C 70.765625 105.964844 70.25 106.050781 69.730469 106.125 Z M 69.730469 106.125 "/><path style=" stroke:none;fill-rule:nonzero;fill:#fdca14;fill-opacity:1;" d="M 75.855469 104.761719 L 75.929688 105.015625 C 76.4375 104.863281 76.941406 104.703125 77.433594 104.53125 L 77.351562 104.292969 C 76.855469 104.453125 76.355469 104.613281 75.855469 104.761719 Z M 75.855469 104.761719 "/><path style=" stroke:none;fill-rule:nonzero;fill:#fdca14;fill-opacity:1;" d="M 89.71875 97.613281 L 89.871094 97.816406 C 90.285156 97.492188 90.703125 97.160156 91.101562 96.828125 L 90.941406 96.632812 C 90.539062 96.972656 90.132812 97.296875 89.71875 97.613281 Z M 89.71875 97.613281 "/><path style=" stroke:none;fill-rule:nonzero;fill:#fdca14;fill-opacity:1;" d="M 78.828125 103.746094 L 78.917969 103.984375 C 79.40625 103.796875 79.898438 103.597656 80.378906 103.390625 L 80.277344 103.160156 C 79.800781 103.363281 79.3125 103.5625 78.828125 103.746094 Z M 78.828125 103.746094 "/><path style=" stroke:none;fill-rule:nonzero;fill:#fdca14;fill-opacity:1;" d="M 22.636719 77.542969 C 22.796875 78.046875 22.972656 78.554688 23.144531 79.039062 L 23.382812 78.953125 C 23.203125 78.464844 23.03125 77.960938 22.875 77.464844 Z M 22.636719 77.542969 "/><path style=" stroke:none;fill-rule:nonzero;fill:#fdca14;fill-opacity:1;" d="M 103.023438 80.371094 L 103.257812 80.46875 C 103.464844 79.984375 103.664062 79.492188 103.851562 79 L 103.613281 78.90625 C 103.425781 79.398438 103.230469 79.886719 103.023438 80.371094 Z M 103.023438 80.371094 "/><path style=" stroke:none;fill-rule:nonzero;fill:#fdca14;fill-opacity:1;" d="M 92.128906 95.601562 L 92.296875 95.792969 C 92.6875 95.445312 93.078125 95.078125 93.453125 94.714844 L 93.277344 94.535156 C 92.902344 94.894531 92.515625 95.257812 92.128906 95.601562 Z M 92.128906 95.601562 "/><path style=" stroke:none;fill-rule:nonzero;fill:#fdca14;fill-opacity:1;" d="M 100.144531 85.96875 L 100.363281 86.101562 C 100.636719 85.652344 100.90625 85.195312 101.160156 84.734375 L 100.941406 84.609375 C 100.683594 85.0625 100.417969 85.519531 100.144531 85.96875 Z M 100.144531 85.96875 "/><path style=" stroke:none;fill-rule:nonzero;fill:#fdca14;fill-opacity:1;" d="M 98.410156 88.59375 L 98.613281 88.738281 C 98.921875 88.3125 99.222656 87.871094 99.511719 87.4375 L 99.300781 87.296875 C 99.003906 87.730469 98.714844 88.167969 98.410156 88.59375 Z M 98.410156 88.59375 "/><path style=" stroke:none;fill-rule:nonzero;fill:#fdca14;fill-opacity:1;" d="M 94.386719 93.425781 L 94.570312 93.601562 C 94.933594 93.226562 95.296875 92.839844 95.644531 92.441406 L 95.457031 92.273438 C 95.113281 92.664062 94.75 93.046875 94.386719 93.425781 Z M 94.386719 93.425781 "/><path style=" stroke:none;fill-rule:nonzero;fill:#fdca14;fill-opacity:1;" d="M 96.484375 91.078125 L 96.679688 91.242188 C 97.015625 90.839844 97.347656 90.425781 97.667969 90.007812 L 97.46875 89.851562 C 97.148438 90.269531 96.820312 90.679688 96.484375 91.078125 Z M 96.484375 91.078125 "/><path style=" stroke:none;fill-rule:nonzero;fill:#fdca14;fill-opacity:1;" d="M 101.6875 83.222656 L 101.914062 83.339844 C 102.15625 82.871094 102.386719 82.394531 102.613281 81.917969 L 102.378906 81.808594 C 102.160156 82.273438 101.925781 82.757812 101.6875 83.222656 Z M 101.6875 83.222656 "/><path style=" stroke:none;fill-rule:nonzero;fill:#fdca14;fill-opacity:1;" d="M 32.40625 93.578125 L 32.222656 93.753906 C 32.585938 94.136719 32.960938 94.515625 33.339844 94.875 L 33.511719 94.691406 C 33.136719 94.332031 32.765625 93.957031 32.40625 93.578125 Z M 32.40625 93.578125 "/><path style=" stroke:none;fill-rule:nonzero;fill:#fdca14;fill-opacity:1;" d="M 30.125 91.398438 C 30.457031 91.804688 30.804688 92.210938 31.140625 92.601562 L 31.332031 92.433594 C 30.988281 92.042969 30.644531 91.640625 30.316406 91.238281 Z M 30.125 91.398438 "/><path style=" stroke:none;fill-rule:nonzero;fill:#fdca14;fill-opacity:1;" d="M 28.214844 88.863281 C 28.511719 89.292969 28.828125 89.726562 29.144531 90.144531 L 29.347656 89.992188 C 29.03125 89.574219 28.722656 89.144531 28.421875 88.722656 Z M 28.214844 88.863281 "/><path style=" stroke:none;fill-rule:nonzero;fill:#fdca14;fill-opacity:1;" d="M 60.320312 106.625 C 60.839844 106.675781 61.367188 106.714844 61.894531 106.75 L 61.910156 106.496094 C 61.386719 106.464844 60.859375 106.421875 60.347656 106.371094 Z M 60.320312 106.625 "/><path style=" stroke:none;fill-rule:nonzero;fill:#fdca14;fill-opacity:1;" d="M 23.722656 80.515625 C 23.921875 81.007812 24.128906 81.496094 24.339844 81.972656 L 24.574219 81.871094 C 24.363281 81.394531 24.152344 80.90625 23.957031 80.421875 Z M 23.722656 80.515625 "/><path style=" stroke:none;fill-rule:nonzero;fill:#fdca14;fill-opacity:1;" d="M 36.941406 97.957031 C 37.359375 98.269531 37.789062 98.582031 38.21875 98.882812 L 38.363281 98.675781 C 37.933594 98.375 37.507812 98.066406 37.097656 97.75 Z M 36.941406 97.957031 "/><path style=" stroke:none;fill-rule:nonzero;fill:#fdca14;fill-opacity:1;" d="M 26.511719 86.195312 C 26.78125 86.648438 27.058594 87.101562 27.339844 87.546875 L 27.554688 87.410156 C 27.273438 86.96875 26.992188 86.515625 26.730469 86.066406 Z M 26.511719 86.195312 "/><path style=" stroke:none;fill-rule:nonzero;fill:#fdca14;fill-opacity:1;" d="M 24.992188 83.410156 C 25.226562 83.878906 25.46875 84.351562 25.714844 84.816406 L 25.941406 84.695312 C 25.6875 84.234375 25.449219 83.765625 25.222656 83.296875 Z M 24.992188 83.410156 "/><path style=" stroke:none;fill-rule:nonzero;fill:#fdca14;fill-opacity:1;" d="M 34.5 95.960938 C 34.890625 96.308594 35.292969 96.65625 35.699219 96.988281 L 35.859375 96.792969 C 35.457031 96.460938 35.054688 96.117188 34.667969 95.777344 Z M 34.5 95.960938 "/><path style=" stroke:none;fill-rule:nonzero;fill:#fdca14;fill-opacity:1;" d="M 39.53125 99.761719 C 39.972656 100.046875 40.425781 100.324219 40.878906 100.589844 L 41.007812 100.371094 C 40.558594 100.117188 40.105469 99.832031 39.667969 99.550781 Z M 39.53125 99.761719 "/><path style=" stroke:none;fill-rule:nonzero;fill:#fdca14;fill-opacity:1;" d="M 57.179688 106.242188 C 57.6875 106.320312 58.21875 106.390625 58.742188 106.457031 L 58.769531 106.203125 C 58.261719 106.140625 57.730469 106.070312 57.21875 105.988281 Z M 57.179688 106.242188 "/><path style=" stroke:none;fill-rule:nonzero;fill:#fdca14;fill-opacity:1;" d="M 51.023438 104.902344 C 51.53125 105.042969 52.039062 105.179688 52.546875 105.3125 L 52.605469 105.058594 C 52.097656 104.929688 51.59375 104.804688 51.085938 104.652344 Z M 51.023438 104.902344 "/><path style=" stroke:none;fill-rule:nonzero;fill:#fdca14;fill-opacity:1;" d="M 54.085938 105.667969 C 54.59375 105.78125 55.113281 105.882812 55.636719 105.980469 L 55.679688 105.726562 C 55.171875 105.628906 54.644531 105.523438 54.140625 105.414062 Z M 54.085938 105.667969 "/><path style=" stroke:none;fill-rule:nonzero;fill:#fdca14;fill-opacity:1;" d="M 42.253906 101.363281 C 42.714844 101.617188 43.1875 101.855469 43.660156 102.085938 L 43.769531 101.855469 C 43.304688 101.625 42.828125 101.382812 42.375 101.140625 Z M 42.253906 101.363281 "/><path style=" stroke:none;fill-rule:nonzero;fill:#fdca14;fill-opacity:1;" d="M 45.089844 102.75 C 45.570312 102.964844 46.054688 103.175781 46.546875 103.371094 L 46.640625 103.132812 C 46.15625 102.9375 45.667969 102.730469 45.195312 102.519531 Z M 45.089844 102.75 "/><path style=" stroke:none;fill-rule:nonzero;fill:#fdca14;fill-opacity:1;" d="M 48.019531 103.933594 C 48.511719 104.109375 49.015625 104.277344 49.515625 104.4375 L 49.59375 104.183594 C 49.085938 104.027344 48.59375 103.851562 48.105469 103.679688 Z M 48.019531 103.933594 "/><path style=" stroke:none;fill-rule:nonzero;fill:#fdca14;fill-opacity:1;" d="M 108.980469 88.023438 C 110.675781 84.871094 112.027344 81.574219 113.035156 78.140625 L 112.4375 77.964844 C 110.441406 84.789062 107.152344 90.921875 102.574219 96.359375 L 103.058594 96.769531 C 105.332031 94.054688 107.304688 91.140625 108.980469 88.023438 Z M 108.980469 88.023438 "/><path style=" stroke:none;fill-rule:nonzero;fill:#fdca14;fill-opacity:1;" d="M 112.996094 48.742188 C 110.960938 41.898438 107.648438 35.742188 103.058594 30.277344 L 102.574219 30.683594 C 107.113281 36.085938 110.386719 42.167969 112.386719 48.933594 Z M 112.996094 48.742188 "/><path style=" stroke:none;fill-rule:nonzero;fill:#fdca14;fill-opacity:1;" d="M 13.332031 78.132812 C 15.359375 85.039062 18.6875 91.246094 23.316406 96.757812 L 23.800781 96.351562 C 19.222656 90.914062 15.929688 84.785156 13.929688 77.964844 Z M 13.332031 78.132812 "/><path style=" stroke:none;fill-rule:nonzero;fill:#fdca14;fill-opacity:1;" d="M 17.421875 38.933594 C 15.734375 42.058594 14.382812 45.328125 13.367188 48.734375 L 13.976562 48.914062 C 15.976562 42.148438 19.25 36.066406 23.792969 30.667969 L 23.304688 30.257812 C 21.050781 32.949219 19.089844 35.839844 17.421875 38.933594 Z M 17.421875 38.933594 "/><path style=" stroke:none;fill-rule:nonzero;fill:#fdca14;fill-opacity:1;" d="M 124.917969 60.644531 C 124.675781 60.363281 124.542969 60.039062 124.519531 59.671875 C 124.496094 59.304688 124.589844 58.964844 124.792969 58.660156 L 126.121094 56.675781 C 126.230469 56.511719 126.308594 56.332031 126.355469 56.140625 C 126.402344 55.949219 126.410156 55.757812 126.386719 55.558594 C 126.363281 55.363281 126.304688 55.179688 126.210938 55.003906 C 126.121094 54.832031 126 54.679688 125.855469 54.546875 L 124.078125 52.957031 C 123.804688 52.710938 123.632812 52.40625 123.5625 52.042969 C 123.496094 51.679688 123.542969 51.335938 123.707031 51.003906 L 124.777344 48.867188 C 124.863281 48.691406 124.917969 48.503906 124.9375 48.308594 C 124.960938 48.113281 124.945312 47.917969 124.894531 47.730469 C 124.847656 47.539062 124.765625 47.363281 124.652344 47.199219 C 124.542969 47.039062 124.402344 46.902344 124.242188 46.789062 L 122.28125 45.433594 C 121.976562 45.222656 121.769531 44.941406 121.65625 44.59375 C 121.542969 44.242188 121.546875 43.894531 121.667969 43.542969 L 122.460938 41.292969 C 122.527344 41.105469 122.554688 40.914062 122.554688 40.71875 C 122.550781 40.519531 122.511719 40.328125 122.4375 40.148438 C 122.367188 39.964844 122.265625 39.796875 122.132812 39.652344 C 122 39.507812 121.847656 39.386719 121.671875 39.296875 L 119.554688 38.195312 C 119.226562 38.027344 118.984375 37.773438 118.828125 37.441406 C 118.671875 37.105469 118.632812 36.761719 118.710938 36.398438 L 119.21875 34.066406 C 119.257812 33.871094 119.265625 33.679688 119.238281 33.484375 C 119.210938 33.289062 119.148438 33.105469 119.054688 32.933594 C 118.957031 32.757812 118.835938 32.609375 118.6875 32.480469 C 118.539062 32.351562 118.371094 32.253906 118.1875 32.183594 L 115.949219 31.359375 C 115.601562 31.234375 115.332031 31.015625 115.132812 30.703125 C 114.9375 30.390625 114.855469 30.050781 114.886719 29.683594 L 115.09375 27.304688 C 115.113281 27.109375 115.09375 26.914062 115.039062 26.726562 C 114.988281 26.535156 114.902344 26.359375 114.785156 26.199219 C 114.667969 26.039062 114.527344 25.90625 114.363281 25.796875 C 114.199219 25.6875 114.019531 25.613281 113.828125 25.570312 L 111.503906 25.03125 C 111.148438 24.949219 110.851562 24.765625 110.617188 24.484375 C 110.378906 24.203125 110.253906 23.878906 110.238281 23.511719 L 110.15625 21.113281 C 110.148438 20.917969 110.105469 20.726562 110.03125 20.546875 C 109.953125 20.363281 109.847656 20.203125 109.714844 20.058594 C 109.578125 19.914062 109.425781 19.796875 109.246094 19.710938 C 109.070312 19.625 108.886719 19.570312 108.6875 19.550781 L 106.316406 19.296875 C 105.949219 19.257812 105.632812 19.113281 105.363281 18.863281 C 105.097656 18.609375 104.933594 18.300781 104.871094 17.9375 L 104.480469 15.582031 C 104.449219 15.386719 104.386719 15.203125 104.289062 15.03125 C 104.191406 14.859375 104.066406 14.710938 103.914062 14.585938 C 103.761719 14.460938 103.59375 14.367188 103.40625 14.300781 C 103.21875 14.238281 103.027344 14.207031 102.832031 14.210938 L 100.449219 14.269531 C 100.082031 14.28125 99.746094 14.175781 99.449219 13.960938 C 99.152344 13.742188 98.949219 13.457031 98.84375 13.105469 L 98.164062 10.824219 C 98.109375 10.632812 98.023438 10.460938 97.902344 10.304688 C 97.785156 10.144531 97.644531 10.015625 97.476562 9.910156 C 97.308594 9.804688 97.128906 9.730469 96.9375 9.6875 C 96.746094 9.648438 96.550781 9.640625 96.355469 9.671875 L 93.992188 10.035156 C 93.628906 10.09375 93.285156 10.03125 92.964844 9.855469 C 92.640625 9.675781 92.40625 9.417969 92.257812 9.082031 L 91.292969 6.894531 C 91.214844 6.714844 91.109375 6.554688 90.972656 6.414062 C 90.835938 6.273438 90.679688 6.164062 90.503906 6.078125 C 90.324219 5.996094 90.140625 5.945312 89.945312 5.929688 C 89.75 5.910156 89.558594 5.929688 89.371094 5.980469 L 87.078125 6.632812 C 86.722656 6.734375 86.375 6.714844 86.03125 6.578125 C 85.6875 6.441406 85.421875 6.21875 85.234375 5.902344 L 84.003906 3.851562 C 83.902344 3.683594 83.777344 3.539062 83.625 3.417969 C 83.46875 3.296875 83.300781 3.203125 83.113281 3.144531 C 82.929688 3.082031 82.738281 3.054688 82.542969 3.066406 C 82.347656 3.074219 82.15625 3.113281 81.976562 3.191406 L 79.78125 4.125 C 79.441406 4.269531 79.09375 4.292969 78.738281 4.203125 C 78.378906 4.109375 78.089844 3.917969 77.859375 3.628906 L 76.367188 1.75 C 76.246094 1.59375 76.101562 1.464844 75.933594 1.363281 C 75.765625 1.261719 75.585938 1.191406 75.390625 1.15625 C 75.199219 1.117188 75.003906 1.117188 74.808594 1.148438 C 74.617188 1.183594 74.433594 1.25 74.265625 1.347656 L 72.203125 2.550781 C 71.886719 2.734375 71.542969 2.804688 71.175781 2.757812 C 70.8125 2.707031 70.5 2.554688 70.238281 2.296875 L 68.539062 0.617188 C 68.398438 0.480469 68.238281 0.371094 68.058594 0.289062 C 67.878906 0.210938 67.691406 0.164062 67.496094 0.152344 C 67.300781 0.136719 67.105469 0.160156 66.917969 0.21875 C 66.730469 0.277344 66.558594 0.363281 66.402344 0.484375 L 64.507812 1.933594 C 64.214844 2.160156 63.886719 2.269531 63.515625 2.269531 C 63.148438 2.269531 62.820312 2.160156 62.527344 1.933594 L 60.632812 0.484375 C 60.476562 0.363281 60.304688 0.277344 60.117188 0.21875 C 59.929688 0.160156 59.734375 0.136719 59.539062 0.152344 C 59.34375 0.164062 59.15625 0.210938 58.976562 0.289062 C 58.796875 0.371094 58.636719 0.480469 58.496094 0.617188 L 56.796875 2.296875 C 56.535156 2.554688 56.222656 2.707031 55.859375 2.757812 C 55.492188 2.804688 55.148438 2.734375 54.832031 2.550781 L 52.769531 1.347656 C 52.601562 1.25 52.417969 1.183594 52.226562 1.148438 C 52.03125 1.117188 51.835938 1.117188 51.644531 1.15625 C 51.449219 1.191406 51.269531 1.261719 51.101562 1.363281 C 50.933594 1.464844 50.789062 1.59375 50.667969 1.75 L 49.195312 3.628906 C 48.96875 3.917969 48.675781 4.109375 48.316406 4.199219 C 47.960938 4.292969 47.613281 4.265625 47.273438 4.121094 L 45.078125 3.195312 C 44.898438 3.117188 44.710938 3.074219 44.515625 3.066406 C 44.316406 3.058594 44.128906 3.085938 43.941406 3.144531 C 43.753906 3.207031 43.585938 3.296875 43.429688 3.421875 C 43.277344 3.542969 43.152344 3.6875 43.050781 3.855469 L 41.820312 5.902344 C 41.632812 6.21875 41.367188 6.445312 41.023438 6.582031 C 40.679688 6.71875 40.332031 6.734375 39.976562 6.636719 L 37.699219 5.984375 C 37.507812 5.929688 37.316406 5.910156 37.121094 5.925781 C 36.921875 5.945312 36.734375 5.992188 36.558594 6.078125 C 36.378906 6.160156 36.222656 6.273438 36.085938 6.414062 C 35.949219 6.554688 35.839844 6.714844 35.761719 6.898438 L 34.796875 9.085938 C 34.648438 9.425781 34.410156 9.683594 34.082031 9.863281 C 33.753906 10.039062 33.410156 10.097656 33.042969 10.035156 L 30.683594 9.679688 C 30.488281 9.648438 30.296875 9.65625 30.101562 9.695312 C 29.910156 9.738281 29.730469 9.808594 29.5625 9.917969 C 29.398438 10.023438 29.253906 10.152344 29.136719 10.3125 C 29.015625 10.46875 28.929688 10.640625 28.875 10.832031 L 28.195312 13.113281 C 28.089844 13.464844 27.890625 13.75 27.589844 13.964844 C 27.292969 14.183594 26.960938 14.285156 26.589844 14.277344 L 24.207031 14.21875 C 24.011719 14.214844 23.820312 14.246094 23.632812 14.308594 C 23.449219 14.375 23.277344 14.46875 23.125 14.59375 C 22.976562 14.71875 22.851562 14.867188 22.753906 15.039062 C 22.65625 15.210938 22.589844 15.394531 22.558594 15.585938 L 22.167969 17.945312 C 22.109375 18.308594 21.945312 18.617188 21.675781 18.871094 C 21.40625 19.121094 21.089844 19.265625 20.722656 19.304688 L 18.351562 19.558594 C 18.15625 19.578125 17.96875 19.628906 17.792969 19.714844 C 17.617188 19.804688 17.460938 19.917969 17.324219 20.0625 C 17.191406 20.203125 17.085938 20.367188 17.007812 20.546875 C 16.929688 20.726562 16.890625 20.917969 16.878906 21.113281 L 16.789062 23.5 C 16.773438 23.867188 16.648438 24.191406 16.410156 24.472656 C 16.175781 24.757812 15.878906 24.9375 15.523438 25.023438 L 13.199219 25.558594 C 13.007812 25.601562 12.828125 25.679688 12.664062 25.789062 C 12.5 25.894531 12.359375 26.03125 12.242188 26.191406 C 12.125 26.347656 12.039062 26.523438 11.988281 26.714844 C 11.933594 26.90625 11.914062 27.097656 11.933594 27.296875 L 12.140625 29.671875 C 12.175781 30.039062 12.089844 30.378906 11.894531 30.691406 C 11.695312 31.003906 11.425781 31.222656 11.078125 31.351562 L 8.839844 32.175781 C 8.65625 32.242188 8.488281 32.339844 8.339844 32.46875 C 8.191406 32.597656 8.070312 32.75 7.972656 32.921875 C 7.878906 33.09375 7.816406 33.277344 7.789062 33.472656 C 7.761719 33.667969 7.769531 33.863281 7.808594 34.054688 L 8.316406 36.390625 C 8.394531 36.75 8.355469 37.097656 8.199219 37.429688 C 8.042969 37.765625 7.800781 38.015625 7.472656 38.1875 L 5.355469 39.285156 C 5.179688 39.378906 5.027344 39.496094 4.894531 39.640625 C 4.761719 39.789062 4.660156 39.953125 4.589844 40.136719 C 4.515625 40.320312 4.476562 40.511719 4.472656 40.707031 C 4.472656 40.902344 4.5 41.09375 4.566406 41.28125 L 5.359375 43.535156 C 5.480469 43.882812 5.484375 44.230469 5.371094 44.582031 C 5.257812 44.933594 5.050781 45.210938 4.746094 45.421875 L 2.796875 46.789062 C 2.636719 46.902344 2.5 47.039062 2.386719 47.199219 C 2.273438 47.363281 2.191406 47.539062 2.144531 47.730469 C 2.09375 47.917969 2.082031 48.113281 2.101562 48.308594 C 2.121094 48.503906 2.175781 48.691406 2.261719 48.867188 L 3.332031 51.003906 C 3.496094 51.335938 3.546875 51.679688 3.476562 52.042969 C 3.40625 52.40625 3.234375 52.710938 2.960938 52.957031 L 1.1875 54.546875 C 1.039062 54.679688 0.917969 54.832031 0.828125 55.003906 C 0.734375 55.179688 0.675781 55.363281 0.652344 55.558594 C 0.625 55.753906 0.636719 55.949219 0.679688 56.140625 C 0.726562 56.332031 0.804688 56.511719 0.914062 56.675781 L 2.238281 58.660156 C 2.445312 58.964844 2.535156 59.304688 2.511719 59.671875 C 2.488281 60.039062 2.355469 60.363281 2.113281 60.644531 L 0.550781 62.445312 C 0.421875 62.59375 0.320312 62.761719 0.253906 62.945312 C 0.183594 63.128906 0.148438 63.320312 0.148438 63.515625 C 0.148438 63.714844 0.183594 63.90625 0.253906 64.089844 C 0.320312 64.273438 0.421875 64.441406 0.550781 64.589844 L 2.113281 66.390625 C 2.355469 66.671875 2.488281 66.996094 2.511719 67.363281 C 2.535156 67.730469 2.445312 68.070312 2.238281 68.375 L 0.914062 70.359375 C 0.804688 70.523438 0.726562 70.703125 0.679688 70.894531 C 0.632812 71.085938 0.625 71.277344 0.648438 71.472656 C 0.671875 71.667969 0.730469 71.855469 0.824219 72.027344 C 0.914062 72.203125 1.035156 72.355469 1.179688 72.488281 L 2.957031 74.078125 C 3.230469 74.324219 3.402344 74.628906 3.472656 74.992188 C 3.539062 75.355469 3.492188 75.699219 3.328125 76.03125 L 2.261719 78.167969 C 2.175781 78.34375 2.121094 78.53125 2.101562 78.726562 C 2.082031 78.921875 2.09375 79.117188 2.144531 79.304688 C 2.191406 79.496094 2.273438 79.671875 2.386719 79.835938 C 2.5 79.996094 2.636719 80.132812 2.796875 80.246094 L 4.761719 81.601562 C 5.0625 81.8125 5.269531 82.09375 5.386719 82.441406 C 5.5 82.792969 5.496094 83.140625 5.375 83.492188 L 4.578125 85.742188 C 4.515625 85.929688 4.484375 86.121094 4.488281 86.316406 C 4.492188 86.515625 4.527344 86.703125 4.601562 86.886719 C 4.671875 87.070312 4.777344 87.234375 4.90625 87.382812 C 5.039062 87.527344 5.195312 87.648438 5.367188 87.738281 L 7.484375 88.839844 C 7.8125 89.007812 8.054688 89.261719 8.210938 89.59375 C 8.367188 89.929688 8.40625 90.277344 8.328125 90.636719 L 7.820312 92.972656 C 7.78125 93.164062 7.773438 93.359375 7.800781 93.554688 C 7.832031 93.75 7.890625 93.933594 7.988281 94.105469 C 8.082031 94.277344 8.203125 94.429688 8.351562 94.558594 C 8.5 94.6875 8.667969 94.785156 8.851562 94.851562 L 11.089844 95.675781 C 11.4375 95.804688 11.710938 96.023438 11.90625 96.335938 C 12.105469 96.648438 12.1875 96.988281 12.152344 97.355469 L 11.945312 99.730469 C 11.929688 99.929688 11.945312 100.121094 12 100.3125 C 12.050781 100.503906 12.136719 100.679688 12.253906 100.835938 C 12.371094 100.996094 12.511719 101.132812 12.675781 101.238281 C 12.839844 101.347656 13.019531 101.425781 13.214844 101.46875 L 15.535156 102.003906 C 15.890625 102.089844 16.1875 102.269531 16.425781 102.554688 C 16.660156 102.835938 16.785156 103.160156 16.800781 103.527344 L 16.878906 105.921875 C 16.886719 106.117188 16.929688 106.308594 17.003906 106.488281 C 17.082031 106.671875 17.1875 106.832031 17.320312 106.976562 C 17.457031 107.121094 17.609375 107.234375 17.789062 107.324219 C 17.964844 107.410156 18.148438 107.464844 18.34375 107.484375 L 20.71875 107.726562 C 21.085938 107.761719 21.402344 107.90625 21.671875 108.160156 C 21.9375 108.414062 22.101562 108.722656 22.164062 109.085938 L 22.554688 111.441406 C 22.585938 111.636719 22.648438 111.820312 22.746094 111.988281 C 22.84375 112.160156 22.96875 112.308594 23.121094 112.433594 C 23.273438 112.5625 23.441406 112.65625 23.628906 112.722656 C 23.816406 112.785156 24.007812 112.816406 24.203125 112.8125 L 26.585938 112.753906 C 26.953125 112.742188 27.289062 112.847656 27.585938 113.0625 C 27.882812 113.28125 28.085938 113.566406 28.191406 113.917969 L 28.871094 116.199219 C 28.925781 116.386719 29.011719 116.5625 29.132812 116.71875 C 29.25 116.875 29.390625 117.007812 29.558594 117.113281 C 29.726562 117.21875 29.90625 117.292969 30.097656 117.332031 C 30.289062 117.375 30.484375 117.378906 30.679688 117.351562 L 33.035156 116.992188 C 33.398438 116.9375 33.742188 117 34.066406 117.175781 C 34.390625 117.355469 34.625 117.609375 34.773438 117.949219 L 35.734375 120.136719 C 35.816406 120.316406 35.921875 120.476562 36.058594 120.617188 C 36.195312 120.757812 36.355469 120.871094 36.53125 120.957031 C 36.710938 121.039062 36.898438 121.089844 37.09375 121.105469 C 37.289062 121.121094 37.484375 121.101562 37.671875 121.046875 L 39.953125 120.398438 C 40.308594 120.296875 40.65625 120.3125 41 120.449219 C 41.339844 120.585938 41.605469 120.8125 41.796875 121.128906 L 43.023438 123.175781 C 43.125 123.34375 43.253906 123.492188 43.40625 123.613281 C 43.558594 123.734375 43.730469 123.824219 43.914062 123.886719 C 44.101562 123.949219 44.292969 123.972656 44.488281 123.964844 C 44.683594 123.957031 44.871094 123.914062 45.054688 123.839844 L 47.246094 122.90625 C 47.589844 122.761719 47.9375 122.738281 48.292969 122.832031 C 48.652344 122.925781 48.941406 123.121094 49.167969 123.414062 L 50.640625 125.292969 C 50.761719 125.445312 50.910156 125.574219 51.078125 125.675781 C 51.246094 125.777344 51.425781 125.847656 51.617188 125.882812 C 51.8125 125.921875 52.003906 125.921875 52.199219 125.890625 C 52.394531 125.855469 52.574219 125.789062 52.746094 125.691406 L 54.804688 124.488281 C 55.125 124.304688 55.46875 124.238281 55.832031 124.285156 C 56.199219 124.332031 56.511719 124.484375 56.773438 124.742188 L 58.472656 126.421875 C 58.609375 126.558594 58.769531 126.667969 58.949219 126.75 C 59.128906 126.832031 59.316406 126.878906 59.515625 126.890625 C 59.710938 126.902344 59.902344 126.878906 60.089844 126.820312 C 60.28125 126.765625 60.453125 126.675781 60.609375 126.554688 L 62.5 125.105469 C 62.792969 124.882812 63.125 124.769531 63.492188 124.769531 C 63.859375 124.769531 64.191406 124.882812 64.484375 125.105469 L 66.375 126.554688 C 66.53125 126.675781 66.703125 126.765625 66.894531 126.820312 C 67.082031 126.878906 67.273438 126.902344 67.46875 126.890625 C 67.667969 126.878906 67.855469 126.832031 68.035156 126.75 C 68.214844 126.667969 68.375 126.558594 68.511719 126.421875 L 70.210938 124.742188 C 70.472656 124.484375 70.785156 124.332031 71.152344 124.285156 C 71.515625 124.238281 71.859375 124.304688 72.179688 124.488281 L 74.238281 125.691406 C 74.410156 125.789062 74.589844 125.855469 74.785156 125.890625 C 74.980469 125.921875 75.171875 125.921875 75.367188 125.882812 C 75.558594 125.847656 75.738281 125.777344 75.90625 125.675781 C 76.074219 125.574219 76.222656 125.445312 76.34375 125.292969 L 77.816406 123.414062 C 78.039062 123.121094 78.332031 122.925781 78.691406 122.832031 C 79.046875 122.738281 79.394531 122.761719 79.738281 122.90625 L 81.929688 123.839844 C 82.113281 123.914062 82.300781 123.957031 82.496094 123.964844 C 82.691406 123.972656 82.882812 123.949219 83.070312 123.886719 C 83.253906 123.824219 83.425781 123.734375 83.578125 123.613281 C 83.730469 123.492188 83.859375 123.34375 83.960938 123.175781 L 85.1875 121.128906 C 85.378906 120.8125 85.644531 120.585938 85.984375 120.449219 C 86.328125 120.3125 86.675781 120.296875 87.03125 120.398438 L 89.371094 121.054688 C 89.558594 121.105469 89.753906 121.125 89.949219 121.109375 C 90.144531 121.09375 90.332031 121.042969 90.511719 120.960938 C 90.6875 120.875 90.84375 120.765625 90.984375 120.621094 C 91.121094 120.480469 91.226562 120.320312 91.308594 120.140625 L 92.269531 117.953125 C 92.417969 117.617188 92.652344 117.359375 92.976562 117.179688 C 93.300781 117.003906 93.640625 116.941406 94.007812 116.996094 L 96.363281 117.355469 C 96.558594 117.386719 96.753906 117.378906 96.945312 117.339844 C 97.136719 117.296875 97.316406 117.222656 97.484375 117.117188 C 97.648438 117.011719 97.792969 116.882812 97.910156 116.722656 C 98.03125 116.566406 98.117188 116.394531 98.171875 116.203125 L 98.851562 113.921875 C 98.957031 113.570312 99.160156 113.285156 99.457031 113.066406 C 99.753906 112.851562 100.089844 112.746094 100.457031 112.757812 L 102.839844 112.816406 C 103.035156 112.820312 103.226562 112.789062 103.414062 112.726562 C 103.601562 112.660156 103.769531 112.566406 103.921875 112.441406 C 104.074219 112.316406 104.195312 112.167969 104.296875 111.996094 C 104.394531 111.824219 104.457031 111.640625 104.488281 111.445312 L 104.878906 109.089844 C 104.9375 108.726562 105.101562 108.417969 105.371094 108.164062 C 105.640625 107.914062 105.957031 107.769531 106.324219 107.730469 L 108.695312 107.492188 C 108.890625 107.46875 109.078125 107.414062 109.253906 107.328125 C 109.429688 107.238281 109.585938 107.121094 109.71875 106.976562 C 109.851562 106.832031 109.957031 106.671875 110.03125 106.488281 C 110.105469 106.308594 110.148438 106.117188 110.15625 105.921875 L 110.246094 103.535156 C 110.261719 103.167969 110.386719 102.84375 110.625 102.558594 C 110.859375 102.277344 111.15625 102.097656 111.511719 102.011719 L 113.835938 101.476562 C 114.027344 101.433594 114.207031 101.355469 114.371094 101.246094 C 114.535156 101.140625 114.675781 101.003906 114.792969 100.84375 C 114.910156 100.6875 114.996094 100.511719 115.046875 100.320312 C 115.101562 100.128906 115.117188 99.9375 115.101562 99.738281 L 114.894531 97.363281 C 114.859375 96.996094 114.941406 96.65625 115.140625 96.34375 C 115.339844 96.03125 115.609375 95.8125 115.957031 95.683594 L 118.195312 94.859375 C 118.378906 94.792969 118.546875 94.695312 118.695312 94.566406 C 118.84375 94.4375 118.964844 94.285156 119.0625 94.113281 C 119.15625 93.941406 119.21875 93.757812 119.246094 93.5625 C 119.273438 93.367188 119.265625 93.171875 119.226562 92.980469 L 118.71875 90.644531 C 118.640625 90.285156 118.679688 89.9375 118.835938 89.605469 C 118.992188 89.269531 119.234375 89.019531 119.5625 88.847656 L 121.679688 87.75 C 121.855469 87.65625 122.007812 87.539062 122.140625 87.394531 C 122.273438 87.246094 122.375 87.082031 122.445312 86.898438 C 122.519531 86.714844 122.558594 86.523438 122.558594 86.328125 C 122.5625 86.132812 122.53125 85.941406 122.46875 85.753906 L 121.675781 83.5 C 121.550781 83.152344 121.550781 82.804688 121.664062 82.453125 C 121.777344 82.101562 121.984375 81.820312 122.289062 81.613281 L 124.25 80.257812 C 124.410156 80.144531 124.546875 80.007812 124.660156 79.84375 C 124.773438 79.683594 124.855469 79.507812 124.902344 79.316406 C 124.953125 79.125 124.96875 78.933594 124.945312 78.734375 C 124.925781 78.539062 124.871094 78.355469 124.785156 78.175781 L 123.714844 76.039062 C 123.550781 75.710938 123.5 75.363281 123.570312 75.003906 C 123.640625 74.640625 123.8125 74.335938 124.085938 74.089844 L 125.863281 72.496094 C 126.007812 72.367188 126.128906 72.210938 126.21875 72.035156 C 126.3125 71.859375 126.371094 71.675781 126.394531 71.476562 C 126.417969 71.28125 126.40625 71.085938 126.359375 70.894531 C 126.3125 70.703125 126.234375 70.523438 126.121094 70.359375 L 124.796875 68.375 C 124.589844 68.070312 124.5 67.730469 124.523438 67.363281 C 124.546875 66.996094 124.679688 66.671875 124.921875 66.390625 L 126.484375 64.589844 C 126.613281 64.441406 126.714844 64.273438 126.78125 64.089844 C 126.851562 63.90625 126.886719 63.714844 126.886719 63.515625 C 126.886719 63.320312 126.851562 63.128906 126.78125 62.945312 C 126.714844 62.761719 126.613281 62.59375 126.484375 62.445312 Z M 63.515625 4.714844 C 91.574219 4.714844 115.027344 24.433594 120.832031 50.796875 L 119.460938 50.796875 C 118.265625 45.511719 116.359375 40.496094 113.742188 35.75 C 111.125 31.003906 107.902344 26.714844 104.070312 22.882812 C 101.464844 20.273438 98.636719 17.933594 95.585938 15.867188 C 89.320312 11.625 82.484375 8.738281 75.074219 7.214844 C 67.371094 5.644531 59.664062 5.644531 51.960938 7.214844 C 44.550781 8.738281 37.710938 11.625 31.449219 15.867188 C 26.835938 18.988281 22.761719 22.699219 19.222656 27 C 15.6875 31.304688 12.832031 36.019531 10.664062 41.152344 C 9.347656 44.277344 8.3125 47.492188 7.570312 50.796875 L 6.199219 50.796875 C 12.007812 24.433594 35.460938 4.714844 63.515625 4.714844 Z M 105.78125 45.628906 C 104.625 42.890625 103.214844 40.289062 101.550781 37.824219 C 99.066406 34.128906 96.105469 30.867188 92.671875 28.03125 C 89.238281 25.199219 85.472656 22.910156 81.375 21.171875 C 78.546875 19.980469 75.632812 19.078125 72.628906 18.472656 C 69.621094 17.863281 66.585938 17.558594 63.519531 17.558594 C 60.453125 17.558594 57.417969 17.863281 54.410156 18.472656 C 51.40625 19.078125 48.488281 19.980469 45.664062 21.171875 C 44.09375 21.839844 42.5625 22.589844 41.078125 23.425781 C 39.589844 24.261719 38.15625 25.179688 36.769531 26.175781 C 35.386719 27.171875 34.058594 28.242188 32.792969 29.386719 C 31.527344 30.53125 30.328125 31.742188 29.199219 33.019531 C 28.066406 34.296875 27.011719 35.632812 26.027344 37.027344 C 25.046875 38.421875 24.144531 39.867188 23.320312 41.363281 C 22.5 42.859375 21.761719 44.394531 21.113281 45.972656 C 20.460938 47.546875 19.898438 49.15625 19.429688 50.796875 L 8.066406 50.796875 C 13.839844 25.476562 36.515625 6.527344 63.515625 6.527344 C 90.519531 6.527344 113.195312 25.476562 118.96875 50.796875 L 107.621094 50.796875 C 107.109375 49.039062 106.496094 47.316406 105.78125 45.628906 Z M 106.9375 50.796875 L 20.097656 50.796875 C 25.601562 31.976562 42.988281 18.195312 63.515625 18.195312 C 84.046875 18.195312 101.4375 31.976562 106.9375 50.796875 Z M 63.515625 122.320312 C 35.460938 122.320312 12.007812 102.601562 6.203125 76.238281 L 7.574219 76.238281 C 9.152344 83.234375 11.945312 89.703125 15.957031 95.644531 C 20.121094 101.820312 25.285156 106.992188 31.449219 111.167969 C 37.714844 115.410156 44.550781 118.292969 51.960938 119.816406 C 59.664062 121.386719 67.371094 121.386719 75.074219 119.816406 C 82.484375 118.292969 89.320312 115.410156 95.585938 111.167969 C 100.199219 108.046875 104.273438 104.335938 107.8125 100.03125 C 111.347656 95.730469 114.199219 91.011719 116.371094 85.882812 C 117.6875 82.757812 118.71875 79.542969 119.464844 76.234375 L 120.832031 76.234375 C 115.027344 102.601562 91.574219 122.320312 63.515625 122.320312 Z M 104.390625 77.507812 C 104.53125 77.085938 104.667969 76.660156 104.796875 76.238281 L 106.9375 76.238281 C 101.4375 95.058594 84.046875 108.839844 63.515625 108.839844 C 42.988281 108.839844 25.601562 95.058594 20.097656 76.238281 L 104.53125 76.238281 C 104.410156 76.636719 104.277344 77.035156 104.148438 77.425781 Z M 21.253906 81.40625 C 22.410156 84.144531 23.820312 86.746094 25.484375 89.210938 C 27.96875 92.90625 30.929688 96.167969 34.363281 99.003906 C 37.796875 101.835938 41.566406 104.125 45.664062 105.863281 C 48.488281 107.054688 51.40625 107.957031 54.410156 108.5625 C 57.417969 109.171875 60.453125 109.476562 63.519531 109.476562 C 66.585938 109.476562 69.621094 109.171875 72.628906 108.5625 C 75.632812 107.957031 78.546875 107.054688 81.375 105.863281 C 84.109375 104.703125 86.703125 103.289062 89.164062 101.625 C 94.097656 98.289062 98.226562 94.148438 101.550781 89.207031 C 103.214844 86.742188 104.625 84.140625 105.78125 81.402344 C 106.492188 79.714844 107.101562 77.992188 107.605469 76.234375 L 118.96875 76.234375 C 113.195312 101.558594 90.519531 120.507812 63.515625 120.507812 C 36.515625 120.507812 13.839844 101.558594 8.066406 76.238281 L 19.429688 76.238281 C 19.933594 77.996094 20.542969 79.71875 21.253906 81.40625 Z M 122.527344 71.210938 C 122.527344 71.671875 122.4375 72.117188 122.261719 72.546875 C 122.085938 72.972656 121.832031 73.351562 121.503906 73.679688 C 121.179688 74.007812 120.800781 74.257812 120.375 74.4375 C 119.945312 74.613281 119.5 74.703125 119.039062 74.707031 L 8.007812 74.707031 C 7.546875 74.703125 7.101562 74.613281 6.671875 74.4375 C 6.246094 74.257812 5.867188 74.007812 5.542969 73.679688 C 5.214844 73.351562 4.960938 72.972656 4.785156 72.546875 C 4.609375 72.117188 4.519531 71.671875 4.519531 71.210938 L 4.519531 55.824219 C 4.519531 55.363281 4.609375 54.917969 4.785156 54.488281 C 4.960938 54.0625 5.214844 53.683594 5.542969 53.355469 C 5.867188 53.027344 6.246094 52.777344 6.671875 52.597656 C 7.101562 52.421875 7.546875 52.332031 8.007812 52.328125 L 119.050781 52.328125 C 119.515625 52.332031 119.960938 52.421875 120.386719 52.597656 C 120.8125 52.777344 121.191406 53.027344 121.519531 53.355469 C 121.84375 53.683594 122.097656 54.0625 122.273438 54.488281 C 122.453125 54.917969 122.539062 55.363281 122.542969 55.824219 Z M 122.527344 71.210938 "/><path style=" stroke:none;fill-rule:nonzero;fill:#fdca14;fill-opacity:1;" d="M 91.410156 107.984375 L 92.574219 107.347656 L 93.757812 107.945312 L 93.511719 106.636719 L 94.445312 105.691406 L 93.128906 105.523438 L 92.519531 104.34375 L 91.953125 105.542969 L 90.644531 105.757812 L 91.609375 106.667969 Z M 91.410156 107.984375 "/><path style=" stroke:none;fill-rule:nonzero;fill:#fdca14;fill-opacity:1;" d="M 96.332031 103.574219 L 96.773438 104.46875 L 97.214844 103.574219 L 98.199219 103.429688 L 97.488281 102.734375 L 97.65625 101.753906 L 96.773438 102.214844 L 95.894531 101.753906 L 96.0625 102.734375 L 95.351562 103.429688 Z M 96.332031 103.574219 "/><path style=" stroke:none;fill-rule:nonzero;fill:#fdca14;fill-opacity:1;" d="M 99.898438 99.78125 L 100.242188 100.480469 L 100.582031 99.78125 L 101.351562 99.671875 L 100.796875 99.132812 L 100.929688 98.367188 L 100.242188 98.726562 L 99.558594 98.367188 L 99.6875 99.132812 L 99.132812 99.671875 Z M 99.898438 99.78125 "/><path style=" stroke:none;fill-rule:nonzero;fill:#fdca14;fill-opacity:1;" d="M 32.859375 107.945312 L 34.046875 107.347656 L 35.210938 107.984375 L 35.011719 106.667969 L 35.976562 105.757812 L 34.664062 105.542969 L 34.101562 104.34375 L 33.492188 105.523438 L 32.175781 105.691406 L 33.109375 106.636719 Z M 32.859375 107.945312 "/><path style=" stroke:none;fill-rule:nonzero;fill:#fdca14;fill-opacity:1;" d="M 29.40625 103.574219 L 29.847656 104.46875 L 30.285156 103.574219 L 31.273438 103.429688 L 30.558594 102.734375 L 30.726562 101.753906 L 29.847656 102.214844 L 28.964844 101.753906 L 29.132812 102.734375 L 28.421875 103.429688 Z M 29.40625 103.574219 "/><path style=" stroke:none;fill-rule:nonzero;fill:#fdca14;fill-opacity:1;" d="M 26.378906 100.480469 L 26.722656 99.78125 L 27.488281 99.671875 L 26.933594 99.132812 L 27.066406 98.367188 L 26.378906 98.726562 L 25.695312 98.367188 L 25.824219 99.132812 L 25.269531 99.671875 L 26.035156 99.78125 Z M 26.378906 100.480469 "/><path style=" stroke:none;fill-rule:nonzero;fill:#fdca14;fill-opacity:1;" d="M 35.210938 19.210938 L 34.046875 19.851562 L 32.859375 19.253906 L 33.109375 20.558594 L 32.175781 21.503906 L 33.492188 21.671875 L 34.101562 22.851562 L 34.664062 21.652344 L 35.976562 21.433594 L 35.011719 20.523438 Z M 35.210938 19.210938 "/><path style=" stroke:none;fill-rule:nonzero;fill:#fdca14;fill-opacity:1;" d="M 29.847656 22.726562 L 29.40625 23.621094 L 28.421875 23.765625 L 29.132812 24.460938 L 28.964844 25.441406 L 29.847656 24.980469 L 30.726562 25.441406 L 30.558594 24.460938 L 31.273438 23.765625 L 30.285156 23.621094 Z M 29.847656 22.726562 "/><path style=" stroke:none;fill-rule:nonzero;fill:#fdca14;fill-opacity:1;" d="M 26.722656 27.410156 L 26.378906 26.71875 L 26.035156 27.410156 L 25.269531 27.523438 L 25.824219 28.066406 L 25.695312 28.828125 L 26.378906 28.46875 L 27.066406 28.828125 L 26.933594 28.066406 L 27.488281 27.523438 Z M 26.722656 27.410156 "/><path style=" stroke:none;fill-rule:nonzero;fill:#fdca14;fill-opacity:1;" d="M 93.441406 19.1875 L 92.257812 19.785156 L 91.089844 19.148438 L 91.292969 20.460938 L 90.328125 21.371094 L 91.636719 21.585938 L 92.203125 22.789062 L 92.8125 21.605469 L 94.128906 21.4375 L 93.195312 20.492188 Z M 93.441406 19.1875 "/><path style=" stroke:none;fill-rule:nonzero;fill:#fdca14;fill-opacity:1;" d="M 96.898438 23.558594 L 96.457031 22.660156 L 96.015625 23.558594 L 95.03125 23.699219 L 95.746094 24.394531 L 95.578125 25.378906 L 96.457031 24.914062 L 97.339844 25.378906 L 97.167969 24.394531 L 97.882812 23.699219 Z M 96.898438 23.558594 "/><path style=" stroke:none;fill-rule:nonzero;fill:#fdca14;fill-opacity:1;" d="M 100.265625 27.347656 L 99.925781 26.652344 L 99.582031 27.347656 L 98.816406 27.457031 L 99.371094 28 L 99.242188 28.765625 L 99.925781 28.402344 L 100.613281 28.765625 L 100.480469 28 L 101.035156 27.457031 Z M 100.265625 27.347656 "/><path style=" stroke:none;fill-rule:nonzero;fill:#fdca14;fill-opacity:1;" d="M 63.515625 22.660156 C 61.46875 22.664062 59.429688 22.816406 57.402344 23.125 C 55.375 23.433594 53.382812 23.890625 51.425781 24.5 C 49.46875 25.109375 47.570312 25.859375 45.726562 26.753906 C 43.878906 27.652344 42.113281 28.679688 40.425781 29.839844 C 38.734375 31 37.144531 32.28125 35.648438 33.683594 C 34.152344 35.085938 32.769531 36.589844 31.5 38.199219 C 30.230469 39.8125 29.089844 41.507812 28.078125 43.289062 C 27.0625 45.070312 26.191406 46.917969 25.457031 48.832031 L 101.578125 48.832031 C 100.84375 46.917969 99.972656 45.070312 98.957031 43.289062 C 97.945312 41.507812 96.804688 39.8125 95.535156 38.199219 C 94.265625 36.589844 92.882812 35.085938 91.386719 33.683594 C 89.890625 32.28125 88.300781 31 86.609375 29.839844 C 84.921875 28.679688 83.152344 27.652344 81.308594 26.753906 C 79.464844 25.859375 77.566406 25.109375 75.609375 24.5 C 73.652344 23.890625 71.660156 23.433594 69.632812 23.125 C 67.605469 22.816406 65.566406 22.664062 63.515625 22.660156 Z M 66.355469 40.300781 L 63.445312 38.703125 L 60.476562 40.199219 L 61.09375 36.933594 L 58.757812 34.570312 L 62.050781 34.148438 L 63.574219 31.195312 L 64.988281 34.199219 L 68.265625 34.734375 L 65.847656 37.015625 Z M 66.355469 40.300781 "/><path style=" stroke:none;fill-rule:nonzero;fill:#fdca14;fill-opacity:1;" d="M 63.515625 104.371094 C 65.574219 104.371094 67.617188 104.214844 69.648438 103.90625 C 71.679688 103.597656 73.675781 103.136719 75.636719 102.523438 C 77.597656 101.910156 79.503906 101.15625 81.351562 100.257812 C 83.199219 99.359375 84.96875 98.324219 86.660156 97.15625 C 88.351562 95.992188 89.945312 94.703125 91.441406 93.296875 C 92.9375 91.890625 94.320312 90.375 95.589844 88.761719 C 96.859375 87.144531 98 85.441406 99.011719 83.652344 C 100.023438 81.863281 100.894531 80.007812 101.625 78.089844 L 25.410156 78.089844 C 26.140625 80.007812 27.011719 81.863281 28.023438 83.652344 C 29.035156 85.441406 30.175781 87.144531 31.445312 88.761719 C 32.710938 90.375 34.09375 91.890625 35.59375 93.296875 C 37.089844 94.703125 38.683594 95.992188 40.375 97.15625 C 42.066406 98.324219 43.835938 99.355469 45.683594 100.257812 C 47.53125 101.15625 49.4375 101.910156 51.398438 102.523438 C 53.359375 103.136719 55.355469 103.597656 57.386719 103.90625 C 59.417969 104.214844 61.460938 104.371094 63.515625 104.371094 Z M 62.058594 89.625 L 63.578125 86.667969 L 64.996094 89.675781 L 68.269531 90.210938 L 65.855469 92.492188 L 66.359375 95.789062 L 63.445312 94.1875 L 60.476562 95.683594 L 61.101562 92.410156 L 58.765625 90.050781 Z M 62.058594 89.625 "/><path style=" stroke:none;fill-rule:nonzero;fill:#fdca14;fill-opacity:1;" d="M 50.898438 111.902344 L 51.1875 110.957031 L 47.339844 109.777344 L 45.785156 114.867188 L 49.722656 116.074219 L 50.011719 115.128906 L 47.242188 114.28125 L 47.605469 113.101562 L 49.96875 113.828125 L 50.246094 112.910156 L 47.882812 112.1875 L 48.222656 111.082031 Z M 50.898438 111.902344 "/><path style=" stroke:none;fill-rule:nonzero;fill:#fdca14;fill-opacity:1;" d="M 55.9375 111.921875 L 54.449219 113.402344 L 53.558594 111.484375 L 52.183594 111.230469 L 53.550781 114.140625 L 51.125 116.449219 L 52.515625 116.703125 L 54.09375 115.113281 L 55.019531 117.167969 L 56.421875 117.421875 L 54.964844 114.355469 L 57.25 112.164062 Z M 55.9375 111.921875 "/><path style=" stroke:none;fill-rule:nonzero;fill:#fdca14;fill-opacity:1;" d="M 61.890625 112.730469 C 61.507812 112.542969 61.101562 112.441406 60.675781 112.425781 L 58.378906 112.28125 L 58.046875 117.605469 L 59.277344 117.679688 L 59.367188 116.214844 L 60.4375 116.28125 C 60.863281 116.320312 61.277344 116.269531 61.679688 116.128906 C 62.019531 116.007812 62.300781 115.804688 62.519531 115.515625 C 62.734375 115.210938 62.851562 114.875 62.863281 114.5 C 62.894531 114.128906 62.824219 113.78125 62.644531 113.453125 C 62.464844 113.136719 62.214844 112.898438 61.890625 112.730469 Z M 61.292969 115.078125 C 61.03125 115.246094 60.742188 115.3125 60.429688 115.265625 L 59.429688 115.203125 L 59.542969 113.359375 L 60.558594 113.421875 C 60.871094 113.417969 61.148438 113.515625 61.390625 113.71875 C 61.582031 113.914062 61.664062 114.148438 61.632812 114.421875 C 61.625 114.695312 61.511719 114.914062 61.292969 115.078125 Z M 61.292969 115.078125 "/><path style=" stroke:none;fill-rule:nonzero;fill:#fdca14;fill-opacity:1;" d="M 65.835938 116.800781 L 65.765625 115.570312 L 68.230469 115.429688 L 68.179688 114.476562 L 65.710938 114.617188 L 65.648438 113.460938 L 68.441406 113.300781 L 68.382812 112.316406 L 64.367188 112.542969 L 64.671875 117.855469 L 68.785156 117.625 L 68.730469 116.636719 Z M 65.835938 116.800781 "/><path style=" stroke:none;fill-rule:nonzero;fill:#fdca14;fill-opacity:1;" d="M 74.074219 115.070312 C 74.382812 114.871094 74.605469 114.605469 74.746094 114.265625 C 74.886719 113.929688 74.914062 113.582031 74.835938 113.222656 C 74.777344 112.855469 74.625 112.53125 74.375 112.253906 C 74.125 111.996094 73.824219 111.828125 73.472656 111.75 C 73.054688 111.65625 72.636719 111.652344 72.21875 111.734375 L 69.9375 112.140625 L 70.878906 117.382812 L 72.09375 117.164062 L 71.839844 115.707031 L 72.894531 115.519531 L 72.949219 115.503906 L 74.214844 116.789062 L 75.523438 116.554688 L 74.050781 115.082031 Z M 72.332031 112.730469 C 72.636719 112.652344 72.933594 112.679688 73.214844 112.816406 C 73.433594 112.972656 73.566406 113.179688 73.613281 113.441406 C 73.660156 113.703125 73.605469 113.945312 73.457031 114.164062 C 73.238281 114.394531 72.976562 114.523438 72.664062 114.558594 L 71.675781 114.730469 L 71.347656 112.90625 Z M 72.332031 112.730469 "/><path style=" stroke:none;fill-rule:nonzero;fill:#fdca14;fill-opacity:1;" d="M 79.730469 109.789062 L 75.289062 111.125 L 75.582031 112.085938 L 77.210938 111.597656 L 78.457031 115.734375 L 79.636719 115.378906 L 78.390625 111.242188 L 80.019531 110.753906 Z M 79.730469 109.789062 "/><path style=" stroke:none;fill-rule:nonzero;fill:#fdca14;fill-opacity:1;" d="M 51.335938 16.585938 L 51.046875 15.636719 L 48.277344 16.488281 L 47.917969 15.3125 L 50.277344 14.585938 L 50 13.671875 L 47.636719 14.394531 L 47.296875 13.289062 L 49.976562 12.46875 L 49.6875 11.523438 L 45.839844 12.703125 L 47.394531 17.792969 Z M 51.335938 16.585938 "/><path style=" stroke:none;fill-rule:nonzero;fill:#fdca14;fill-opacity:1;" d="M 56.507812 10.179688 L 55.191406 10.40625 L 54.300781 12.308594 L 52.808594 10.816406 L 51.429688 11.054688 L 53.710938 13.3125 L 52.230469 16.316406 L 53.625 16.078125 L 54.558594 14.039062 L 56.132812 15.644531 L 57.535156 15.40625 L 55.113281 13.027344 Z M 56.507812 10.179688 "/><path style=" stroke:none;fill-rule:nonzero;fill:#fdca14;fill-opacity:1;" d="M 61.882812 10.003906 C 61.480469 9.859375 61.066406 9.808594 60.636719 9.84375 L 58.339844 9.972656 L 58.632812 15.292969 L 59.863281 15.226562 L 59.78125 13.761719 L 60.851562 13.699219 C 61.277344 13.6875 61.683594 13.585938 62.070312 13.398438 C 62.394531 13.238281 62.648438 13 62.832031 12.6875 C 63 12.359375 63.074219 12.011719 63.054688 11.644531 C 63.035156 11.277344 62.921875 10.941406 62.714844 10.632812 C 62.5 10.339844 62.222656 10.128906 61.882812 10.003906 Z M 61.566406 12.402344 C 61.324219 12.601562 61.042969 12.699219 60.730469 12.691406 L 59.714844 12.75 L 59.613281 10.902344 L 60.628906 10.847656 C 60.941406 10.808594 61.226562 10.875 61.488281 11.050781 C 61.699219 11.222656 61.808594 11.445312 61.808594 11.71875 C 61.835938 11.984375 61.753906 12.210938 61.566406 12.402344 Z M 61.566406 12.402344 "/><path style=" stroke:none;fill-rule:nonzero;fill:#fdca14;fill-opacity:1;" d="M 64.722656 15.066406 L 68.835938 15.339844 L 68.902344 14.351562 L 66.011719 14.160156 L 66.09375 12.929688 L 68.558594 13.09375 L 68.621094 12.136719 L 66.160156 11.976562 L 66.234375 10.824219 L 69.023438 11.007812 L 69.089844 10.019531 L 65.078125 9.753906 Z M 64.722656 15.066406 "/><path style=" stroke:none;fill-rule:nonzero;fill:#fdca14;fill-opacity:1;" d="M 71.898438 14.320312 L 72.953125 14.523438 L 73.007812 14.523438 L 73.730469 16.175781 L 75.039062 16.429688 L 74.191406 14.527344 C 74.546875 14.457031 74.851562 14.289062 75.101562 14.035156 C 75.359375 13.765625 75.519531 13.445312 75.582031 13.078125 C 75.664062 12.714844 75.636719 12.359375 75.503906 12.011719 C 75.363281 11.675781 75.144531 11.410156 74.84375 11.207031 C 74.488281 10.96875 74.101562 10.816406 73.679688 10.746094 L 71.417969 10.3125 L 70.402344 15.539062 L 71.613281 15.769531 Z M 74.214844 12.125 C 74.359375 12.34375 74.410156 12.585938 74.359375 12.84375 C 74.3125 13.105469 74.179688 13.3125 73.960938 13.464844 C 73.675781 13.601562 73.382812 13.628906 73.078125 13.546875 L 72.09375 13.359375 L 72.445312 11.535156 L 73.429688 11.726562 C 73.738281 11.761719 74 11.894531 74.214844 12.125 Z M 74.214844 12.125 "/><path style=" stroke:none;fill-rule:nonzero;fill:#fdca14;fill-opacity:1;" d="M 77.441406 11.574219 L 77.136719 12.535156 L 78.757812 13.046875 L 77.445312 17.167969 L 78.617188 17.539062 L 79.933594 13.421875 L 81.554688 13.941406 L 81.859375 12.980469 Z M 77.441406 11.574219 "/><path style=" stroke:none;fill-rule:nonzero;fill:#fdca14;fill-opacity:1;" d="M 59.101562 60.6875 C 58.722656 60.363281 58.15625 60.203125 57.394531 60.203125 L 55.390625 60.203125 L 55.390625 63.898438 L 57.394531 63.898438 C 58.15625 63.898438 58.722656 63.734375 59.101562 63.410156 C 59.503906 63.050781 59.691406 62.597656 59.664062 62.058594 C 59.691406 61.511719 59.503906 61.054688 59.101562 60.6875 Z M 59.101562 60.6875 "/><path style=" stroke:none;fill-rule:nonzero;fill:#fdca14;fill-opacity:1;" d="M 83.324219 60.6875 C 82.949219 60.363281 82.382812 60.203125 81.621094 60.203125 L 79.613281 60.203125 L 79.613281 63.914062 L 81.621094 63.914062 C 82.382812 63.914062 82.949219 63.75 83.324219 63.417969 C 83.503906 63.238281 83.644531 63.027344 83.742188 62.792969 C 83.839844 62.554688 83.886719 62.308594 83.886719 62.054688 C 83.886719 61.796875 83.839844 61.550781 83.742188 61.316406 C 83.644531 61.078125 83.503906 60.871094 83.324219 60.6875 Z M 83.324219 60.6875 "/><path style=" stroke:none;fill-rule:nonzero;fill:#fdca14;fill-opacity:1;" d="M 119.039062 52.964844 L 8.007812 52.964844 C 7.628906 52.964844 7.265625 53.039062 6.917969 53.183594 C 6.566406 53.332031 6.257812 53.535156 5.988281 53.804688 C 5.722656 54.074219 5.515625 54.382812 5.371094 54.730469 C 5.226562 55.082031 5.152344 55.445312 5.152344 55.824219 L 5.152344 71.210938 C 5.152344 71.589844 5.226562 71.953125 5.371094 72.304688 C 5.515625 72.652344 5.722656 72.960938 5.988281 73.230469 C 6.257812 73.496094 6.566406 73.703125 6.917969 73.851562 C 7.265625 73.996094 7.628906 74.070312 8.007812 74.070312 L 119.050781 74.070312 C 119.429688 74.070312 119.792969 73.996094 120.144531 73.851562 C 120.492188 73.703125 120.800781 73.496094 121.070312 73.230469 C 121.339844 72.960938 121.542969 72.652344 121.6875 72.304688 C 121.835938 71.953125 121.90625 71.589844 121.90625 71.210938 L 121.90625 55.824219 C 121.90625 55.445312 121.835938 55.078125 121.6875 54.730469 C 121.542969 54.378906 121.335938 54.070312 121.066406 53.800781 C 120.796875 53.53125 120.488281 53.324219 120.136719 53.179688 C 119.785156 53.035156 119.417969 52.964844 119.039062 52.964844 Z M 37.503906 68.839844 L 29.261719 68.839844 L 29.261719 58.195312 L 37.308594 58.195312 L 37.308594 60.171875 L 31.710938 60.171875 L 31.710938 62.484375 L 36.652344 62.484375 L 36.652344 64.398438 L 31.707031 64.398438 L 31.707031 66.863281 L 37.503906 66.863281 Z M 47.585938 68.839844 L 45.015625 65.140625 L 42.480469 68.839844 L 39.664062 68.839844 L 43.59375 63.417969 L 39.863281 58.195312 L 42.648438 58.195312 L 45.089844 61.640625 L 47.484375 58.195312 L 50.164062 58.195312 L 46.460938 63.335938 L 50.429688 68.839844 Z M 61.59375 64.109375 C 61.195312 64.714844 60.664062 65.15625 59.996094 65.441406 C 59.207031 65.773438 58.386719 65.925781 57.535156 65.90625 L 55.390625 65.90625 L 55.390625 68.839844 L 52.925781 68.839844 L 52.925781 58.195312 L 57.535156 58.195312 C 58.386719 58.171875 59.207031 58.328125 59.996094 58.660156 C 60.664062 58.941406 61.195312 59.386719 61.59375 59.988281 C 61.96875 60.625 62.15625 61.3125 62.15625 62.050781 C 62.15625 62.789062 61.96875 63.476562 61.59375 64.109375 Z M 73.667969 68.839844 L 65.425781 68.839844 L 65.425781 58.195312 L 73.472656 58.195312 L 73.472656 60.171875 L 67.875 60.171875 L 67.875 62.484375 L 72.816406 62.484375 L 72.816406 64.398438 L 67.875 64.398438 L 67.875 66.863281 L 73.667969 66.863281 Z M 83.917969 68.839844 L 81.875 65.871094 L 79.613281 65.871094 L 79.613281 68.839844 L 77.152344 68.839844 L 77.152344 58.195312 L 81.765625 58.195312 C 82.621094 58.171875 83.441406 58.328125 84.230469 58.660156 C 84.894531 58.941406 85.429688 59.386719 85.828125 59.988281 C 86.222656 60.621094 86.410156 61.3125 86.390625 62.058594 C 86.410156 62.796875 86.222656 63.476562 85.828125 64.101562 C 85.425781 64.703125 84.894531 65.140625 84.230469 65.417969 L 84.207031 65.417969 L 86.582031 68.839844 Z M 97.773438 60.203125 L 94.367188 60.203125 L 94.367188 68.839844 L 91.90625 68.839844 L 91.90625 60.203125 L 88.496094 60.203125 L 88.496094 58.195312 L 97.773438 58.195312 Z M 97.773438 60.203125 "/></g></svg>