<svg xmlns="http://www.w3.org/2000/svg" xmlns:xlink="http://www.w3.org/1999/xlink" width="170" zoomAndPan="magnify" viewBox="0 0 127.5 127.499994" height="170" preserveAspectRatio="xMidYMid meet" version="1.2"><defs><clipPath id="08c287fcef"><path d="M 0 0 L 126.941406 0 L 126.941406 126.941406 L 0 126.941406 Z M 0 0 "/></clipPath><clipPath id="2d1fbeac42"><rect x="0" width="127" y="0" height="127"/></clipPath></defs><g id="117b5ba96e"><g transform="matrix(1,0,0,1,0,0.000000000000007293)"><g clip-path="url(#2d1fbeac42)"><g clip-rule="nonzero" clip-path="url(#08c287fcef)"><path style=" stroke:none;fill-rule:nonzero;fill:#e60084;fill-opacity:1;" d="M 124.953125 32.773438 L 108.566406 32.773438 L 108.566406 24.582031 L 110.613281 24.582031 C 110.886719 24.582031 111.148438 24.527344 111.398438 24.425781 C 111.648438 24.320312 111.871094 24.171875 112.0625 23.980469 C 112.253906 23.789062 112.402344 23.566406 112.507812 23.316406 C 112.609375 23.066406 112.664062 22.804688 112.664062 22.53125 L 112.664062 18.4375 L 120.855469 18.4375 C 121.128906 18.4375 121.390625 18.382812 121.640625 18.28125 C 121.890625 18.175781 122.113281 18.027344 122.304688 17.835938 C 122.496094 17.644531 122.644531 17.421875 122.75 17.171875 C 122.851562 16.921875 122.90625 16.660156 122.90625 16.386719 L 122.90625 0 L 118.808594 0 L 118.808594 14.339844 L 112.664062 14.339844 L 112.664062 10.242188 C 112.664062 9.96875 112.609375 9.710938 112.507812 9.457031 C 112.402344 9.207031 112.253906 8.984375 112.0625 8.792969 C 111.871094 8.601562 111.648438 8.453125 111.398438 8.347656 C 111.148438 8.246094 110.886719 8.195312 110.613281 8.195312 L 73.742188 8.195312 C 73.472656 8.195312 73.210938 8.246094 72.957031 8.347656 C 72.707031 8.453125 72.488281 8.601562 72.292969 8.792969 C 72.101562 8.984375 71.953125 9.207031 71.851562 9.457031 C 71.746094 9.710938 71.695312 9.96875 71.695312 10.242188 L 71.695312 22.53125 C 71.695312 22.804688 71.746094 23.066406 71.851562 23.316406 C 71.953125 23.566406 72.101562 23.789062 72.292969 23.980469 C 72.488281 24.171875 72.707031 24.320312 72.957031 24.425781 C 73.210938 24.527344 73.472656 24.582031 73.742188 24.582031 L 75.792969 24.582031 L 75.792969 32.773438 L 2.046875 32.773438 C 1.777344 32.773438 1.515625 32.828125 1.265625 32.929688 C 1.011719 33.035156 0.792969 33.183594 0.601562 33.375 C 0.40625 33.566406 0.261719 33.789062 0.15625 34.039062 C 0.0507812 34.289062 0 34.550781 0 34.824219 L 0 116.757812 C 0 117.03125 0.0507812 117.292969 0.15625 117.542969 C 0.261719 117.792969 0.40625 118.015625 0.601562 118.207031 C 0.792969 118.398438 1.011719 118.546875 1.265625 118.652344 C 1.515625 118.753906 1.777344 118.808594 2.046875 118.808594 L 4.097656 118.808594 L 4.097656 124.953125 C 4.097656 125.226562 4.148438 125.484375 4.253906 125.738281 C 4.355469 125.988281 4.503906 126.210938 4.695312 126.402344 C 4.890625 126.59375 5.109375 126.742188 5.363281 126.84375 C 5.613281 126.949219 5.875 127 6.144531 127 L 22.53125 127 C 22.804688 127 23.066406 126.949219 23.316406 126.84375 C 23.566406 126.742188 23.789062 126.59375 23.980469 126.402344 C 24.171875 126.210938 24.320312 125.988281 24.425781 125.738281 C 24.527344 125.484375 24.582031 125.226562 24.582031 124.953125 L 24.582031 118.808594 L 102.421875 118.808594 L 102.421875 124.953125 C 102.421875 125.226562 102.472656 125.484375 102.578125 125.738281 C 102.679688 125.988281 102.828125 126.210938 103.019531 126.402344 C 103.210938 126.59375 103.433594 126.742188 103.683594 126.84375 C 103.9375 126.949219 104.199219 127 104.46875 127 L 120.855469 127 C 121.128906 127 121.390625 126.949219 121.640625 126.84375 C 121.890625 126.742188 122.113281 126.59375 122.304688 126.402344 C 122.496094 126.210938 122.644531 125.988281 122.75 125.738281 C 122.851562 125.484375 122.90625 125.226562 122.90625 124.953125 L 122.90625 118.808594 L 124.953125 118.808594 C 125.226562 118.808594 125.484375 118.757812 125.738281 118.652344 C 125.988281 118.546875 126.210938 118.398438 126.402344 118.207031 C 126.59375 118.015625 126.742188 117.792969 126.84375 117.542969 C 126.949219 117.292969 127 117.03125 127 116.757812 L 127 34.824219 C 127 34.550781 126.949219 34.289062 126.84375 34.039062 C 126.742188 33.789062 126.59375 33.566406 126.402344 33.375 C 126.210938 33.183594 125.988281 33.035156 125.738281 32.929688 C 125.484375 32.828125 125.226562 32.773438 124.953125 32.773438 Z M 79.886719 24.582031 L 104.46875 24.582031 L 104.46875 32.773438 L 79.886719 32.773438 Z M 122.90625 114.710938 L 4.097656 114.710938 L 4.097656 110.613281 L 122.90625 110.613281 Z M 24.582031 106.515625 L 24.582031 45.066406 L 57.355469 45.066406 L 57.355469 106.515625 Z M 61.453125 106.515625 L 61.453125 45.066406 L 65.550781 45.066406 L 65.550781 106.515625 Z M 69.644531 106.515625 L 69.644531 45.066406 L 114.710938 45.066406 L 114.710938 106.515625 Z M 122.90625 106.515625 L 118.808594 106.515625 L 118.808594 43.015625 C 118.808594 42.746094 118.757812 42.484375 118.652344 42.234375 C 118.546875 41.980469 118.398438 41.761719 118.207031 41.566406 C 118.015625 41.375 117.792969 41.226562 117.542969 41.125 C 117.292969 41.019531 117.03125 40.96875 116.757812 40.96875 L 22.53125 40.96875 C 22.261719 40.96875 22 41.019531 21.75 41.125 C 21.496094 41.226562 21.277344 41.375 21.085938 41.566406 C 20.890625 41.761719 20.742188 41.980469 20.640625 42.234375 C 20.535156 42.484375 20.484375 42.746094 20.484375 43.015625 L 20.484375 55.308594 L 10.242188 55.308594 C 9.96875 55.308594 9.710938 55.359375 9.457031 55.464844 C 9.207031 55.566406 8.984375 55.714844 8.792969 55.90625 C 8.601562 56.097656 8.453125 56.320312 8.347656 56.570312 C 8.246094 56.824219 8.195312 57.082031 8.195312 57.355469 L 8.195312 65.550781 C 8.195312 65.820312 8.246094 66.082031 8.347656 66.332031 C 8.453125 66.585938 8.601562 66.804688 8.792969 66.996094 C 8.984375 67.191406 9.207031 67.335938 9.457031 67.441406 C 9.710938 67.546875 9.96875 67.597656 10.242188 67.597656 L 20.484375 67.597656 L 20.484375 81.9375 L 10.242188 81.9375 C 9.96875 81.9375 9.710938 81.988281 9.457031 82.09375 C 9.207031 82.195312 8.984375 82.34375 8.792969 82.535156 C 8.601562 82.726562 8.453125 82.949219 8.347656 83.199219 C 8.246094 83.453125 8.195312 83.714844 8.195312 83.984375 L 8.195312 92.179688 C 8.195312 92.449219 8.246094 92.710938 8.347656 92.960938 C 8.453125 93.214844 8.601562 93.433594 8.792969 93.625 C 8.984375 93.820312 9.207031 93.96875 9.457031 94.070312 C 9.710938 94.175781 9.96875 94.226562 10.242188 94.226562 L 20.484375 94.226562 L 20.484375 106.515625 L 4.097656 106.515625 L 4.097656 36.871094 L 122.90625 36.871094 Z M 122.90625 106.515625 "/></g><path style=" stroke:none;fill-rule:nonzero;fill:#e60084;fill-opacity:1;" d="M 86.035156 79.910156 L 98.324219 65.570312 L 92.179688 63.519531 L 102.421875 51.210938 L 90.128906 51.210938 L 81.9375 65.570312 L 88.082031 67.617188 Z M 86.035156 79.910156 "/><path style=" stroke:none;fill-rule:nonzero;fill:#e60084;fill-opacity:1;" d="M 73.742188 90.128906 L 110.613281 90.128906 L 110.613281 94.226562 L 73.742188 94.226562 Z M 73.742188 90.128906 "/><path style=" stroke:none;fill-rule:nonzero;fill:#e60084;fill-opacity:1;" d="M 73.742188 98.324219 L 110.613281 98.324219 L 110.613281 102.421875 L 73.742188 102.421875 Z M 73.742188 98.324219 "/><path style=" stroke:none;fill-rule:nonzero;fill:#e60084;fill-opacity:1;" d="M 30.726562 51.210938 L 51.210938 51.210938 L 51.210938 63.5 L 30.726562 63.5 Z M 30.726562 51.210938 "/><path style=" stroke:none;fill-rule:nonzero;fill:#e60084;fill-opacity:1;" d="M 28.679688 90.128906 L 53.257812 90.128906 L 53.257812 94.226562 L 28.679688 94.226562 Z M 28.679688 90.128906 "/><path style=" stroke:none;fill-rule:nonzero;fill:#e60084;fill-opacity:1;" d="M 28.679688 81.9375 L 53.257812 81.9375 L 53.257812 86.035156 L 28.679688 86.035156 Z M 28.679688 81.9375 "/><path style=" stroke:none;fill-rule:nonzero;fill:#e60084;fill-opacity:1;" d="M 28.679688 98.324219 L 36.871094 98.324219 L 36.871094 102.421875 L 28.679688 102.421875 Z M 28.679688 98.324219 "/><path style=" stroke:none;fill-rule:nonzero;fill:#e60084;fill-opacity:1;" d="M 45.066406 98.324219 L 53.257812 98.324219 L 53.257812 102.421875 L 45.066406 102.421875 Z M 45.066406 98.324219 "/></g></g></g></svg>