<svg xmlns="http://www.w3.org/2000/svg" xmlns:xlink="http://www.w3.org/1999/xlink" width="559" zoomAndPan="magnify" viewBox="0 0 419.25 135.12" height="170" preserveAspectRatio="xMidYMid meet" version="1.2"><defs/><g id="2f9cc94988"><path style=" stroke:none;fill-rule:nonzero;fill:#000000;fill-opacity:1;" d="M 12.589844 5.433594 L 85.644531 5.433594 L 85.644531 27.96875 L 12.589844 27.96875 Z M 12.589844 5.433594 "/><path style=" stroke:none;fill-rule:nonzero;fill:#000000;fill-opacity:1;" d="M 42.273438 19.492188 L 66.753906 19.492188 L 66.753906 106.351562 L 42.273438 106.351562 Z M 42.273438 19.492188 "/><path style=" stroke:none;fill-rule:nonzero;fill:#000000;fill-opacity:1;" d="M 12.589844 5.433594 L 85.644531 5.433594 L 85.644531 27.96875 L 12.589844 27.96875 Z M 12.589844 5.433594 "/><path style=" stroke:none;fill-rule:nonzero;fill:#000000;fill-opacity:1;" d="M 42.273438 19.492188 L 66.753906 19.492188 L 66.753906 106.351562 L 42.273438 106.351562 Z M 42.273438 19.492188 "/><path style=" stroke:none;fill-rule:nonzero;fill:#000000;fill-opacity:1;" d="M 85.074219 5.417969 L 93.050781 5.449219 L 85.621094 28.058594 Z M 85.074219 5.417969 "/><path style=" stroke:none;fill-rule:nonzero;fill:#e60084;fill-opacity:1;" d="M 100.902344 5.453125 L 164.394531 5.589844 L 164.53125 28.480469 L 119.023438 28.480469 L 113.164062 47.011719 L 149.953125 47.144531 L 117.796875 85.296875 L 163.714844 85.023438 L 163.714844 106.960938 L 100.085938 107.230469 L 86.597656 123.71875 L 102.945312 68.128906 L 80.875 68.128906 Z M 100.902344 5.453125 "/><g style="fill:#000000;fill-opacity:1;"><g transform="translate(166.619106, 63.734188)"><path style="stroke:none" d="M 26.046875 -1.921875 C 24.847656 -1.253906 23.570312 -0.738281 22.21875 -0.375 C 20.863281 -0.0078125 19.445312 0.171875 17.96875 0.171875 C 15.394531 0.171875 13.125 -0.265625 11.15625 -1.140625 C 9.195312 -2.015625 7.546875 -3.1875 6.203125 -4.65625 C 4.867188 -6.125 3.859375 -7.78125 3.171875 -9.625 C 2.484375 -11.476562 2.125 -13.394531 2.09375 -15.375 C 2.0625 -17.363281 2.359375 -19.289062 2.984375 -21.15625 C 3.617188 -23.019531 4.585938 -24.710938 5.890625 -26.234375 C 7.203125 -27.765625 8.863281 -29.003906 10.875 -29.953125 C 12.882812 -30.898438 15.25 -31.421875 17.96875 -31.515625 C 19.21875 -31.566406 20.359375 -31.503906 21.390625 -31.328125 C 22.421875 -31.160156 23.28125 -30.972656 23.96875 -30.765625 C 24.65625 -30.566406 25.085938 -30.4375 25.265625 -30.375 L 24.515625 -24.03125 C 23.898438 -24.300781 23.066406 -24.570312 22.015625 -24.84375 C 20.972656 -25.125 19.625 -25.234375 17.96875 -25.171875 C 16.15625 -25.109375 14.613281 -24.710938 13.34375 -23.984375 C 12.082031 -23.265625 11.078125 -22.332031 10.328125 -21.1875 C 9.585938 -20.050781 9.097656 -18.8125 8.859375 -17.46875 C 8.628906 -16.132812 8.644531 -14.796875 8.90625 -13.453125 C 9.175781 -12.117188 9.695312 -10.890625 10.46875 -9.765625 C 11.238281 -8.640625 12.25 -7.742188 13.5 -7.078125 C 14.757812 -6.410156 16.25 -6.078125 17.96875 -6.078125 C 18.257812 -6.078125 18.546875 -6.097656 18.828125 -6.140625 C 19.117188 -6.179688 19.410156 -6.21875 19.703125 -6.25 L 19.703125 -15.640625 L 26.046875 -15.640625 Z M 26.046875 -1.921875 "/></g></g><g style="fill:#000000;fill-opacity:1;"><g transform="translate(194.373081, 63.734188)"><path style="stroke:none" d="M 19.671875 0 L 3.5 0 L 3.5 -31.25 L 19.140625 -31.25 L 19.140625 -25 L 9.75 -25 L 9.75 -18.75 L 17.96875 -18.75 L 17.96875 -12.5 L 9.75 -12.5 L 9.75 -6.25 L 19.671875 -6.25 Z M 19.671875 0 "/></g></g><g style="fill:#000000;fill-opacity:1;"><g transform="translate(214.740486, 63.734188)"><path style="stroke:none" d="M 19.046875 0 L 12.765625 -11.9375 L 9.75 -11.9375 L 9.75 0 L 3.5 0 L 3.5 -31.25 L 15.828125 -31.25 C 17.691406 -31.25 19.269531 -30.863281 20.5625 -30.09375 C 21.851562 -29.320312 22.863281 -28.316406 23.59375 -27.078125 C 24.320312 -25.835938 24.773438 -24.492188 24.953125 -23.046875 C 25.128906 -21.609375 25.019531 -20.195312 24.625 -18.8125 C 24.226562 -17.425781 23.554688 -16.203125 22.609375 -15.140625 C 21.671875 -14.078125 20.425781 -13.328125 18.875 -12.890625 L 26.140625 0 Z M 9.75 -18 L 15.25 -18 C 16.09375 -18 16.769531 -18.234375 17.28125 -18.703125 C 17.789062 -19.171875 18.132812 -19.753906 18.3125 -20.453125 C 18.488281 -21.148438 18.488281 -21.847656 18.3125 -22.546875 C 18.132812 -23.242188 17.789062 -23.828125 17.28125 -24.296875 C 16.769531 -24.765625 16.09375 -25 15.25 -25 L 9.75 -25 Z M 9.75 -18 "/></g></g><g style="fill:#000000;fill-opacity:1;"><g transform="translate(239.872007, 63.734188)"><path style="stroke:none" d="M 0.703125 0 L 13.859375 -32.390625 L 14.515625 -32.390625 L 27.65625 0 L 20.625 0 L 19.359375 -3.359375 L 9 -3.359375 L 7.78125 0 Z M 11.28125 -9.21875 L 17.046875 -9.21875 L 14.203125 -17.34375 Z M 11.28125 -9.21875 "/></g></g><g style="fill:#000000;fill-opacity:1;"><g transform="translate(266.751831, 63.734188)"><path style="stroke:none" d="M 12.8125 -31.25 C 15.394531 -31.25 17.660156 -30.8125 19.609375 -29.9375 C 21.566406 -29.0625 23.191406 -27.878906 24.484375 -26.390625 C 25.785156 -24.910156 26.765625 -23.238281 27.421875 -21.375 C 28.078125 -19.507812 28.40625 -17.59375 28.40625 -15.625 C 28.40625 -13.65625 28.078125 -11.738281 27.421875 -9.875 C 26.765625 -8.007812 25.785156 -6.332031 24.484375 -4.84375 C 23.191406 -3.363281 21.566406 -2.1875 19.609375 -1.3125 C 17.660156 -0.4375 15.394531 0 12.8125 0 L 3.5 0 L 3.5 -31.25 Z M 12.8125 -25 L 9.75 -25 L 9.75 -6.25 L 12.8125 -6.25 C 14.550781 -6.25 16.039062 -6.582031 17.28125 -7.25 C 18.519531 -7.925781 19.507812 -8.820312 20.25 -9.9375 C 21 -11.0625 21.492188 -12.289062 21.734375 -13.625 C 21.984375 -14.96875 21.984375 -16.300781 21.734375 -17.625 C 21.492188 -18.957031 21 -20.179688 20.25 -21.296875 C 19.507812 -22.421875 18.519531 -23.316406 17.28125 -23.984375 C 16.039062 -24.660156 14.550781 -25 12.8125 -25 Z M 12.8125 -25 "/></g></g><g style="fill:#000000;fill-opacity:1;"><g transform="translate(295.86074, 63.734188)"><path style="stroke:none" d="M 18.53125 0.4375 C 15.851562 0.4375 13.5 -0.0078125 11.46875 -0.90625 C 9.445312 -1.8125 7.765625 -3.03125 6.421875 -4.5625 C 5.078125 -6.09375 4.070312 -7.816406 3.40625 -9.734375 C 2.738281 -11.660156 2.40625 -13.632812 2.40625 -15.65625 C 2.40625 -17.6875 2.738281 -19.660156 3.40625 -21.578125 C 4.070312 -23.503906 5.078125 -25.234375 6.421875 -26.765625 C 7.765625 -28.296875 9.445312 -29.507812 11.46875 -30.40625 C 13.5 -31.3125 15.851562 -31.765625 18.53125 -31.765625 C 21.207031 -31.765625 23.554688 -31.3125 25.578125 -30.40625 C 27.609375 -29.507812 29.289062 -28.296875 30.625 -26.765625 C 31.96875 -25.234375 32.972656 -23.503906 33.640625 -21.578125 C 34.316406 -19.660156 34.65625 -17.6875 34.65625 -15.65625 C 34.65625 -13.632812 34.316406 -11.660156 33.640625 -9.734375 C 32.972656 -7.816406 31.96875 -6.09375 30.625 -4.5625 C 29.289062 -3.03125 27.609375 -1.8125 25.578125 -0.90625 C 23.554688 -0.0078125 21.207031 0.4375 18.53125 0.4375 Z M 18.53125 -6.03125 C 20.3125 -6.03125 21.84375 -6.378906 23.125 -7.078125 C 24.40625 -7.773438 25.421875 -8.695312 26.171875 -9.84375 C 26.929688 -11 27.441406 -12.257812 27.703125 -13.625 C 27.960938 -15 27.960938 -16.367188 27.703125 -17.734375 C 27.441406 -19.109375 26.929688 -20.367188 26.171875 -21.515625 C 25.421875 -22.671875 24.40625 -23.597656 23.125 -24.296875 C 21.84375 -24.992188 20.3125 -25.34375 18.53125 -25.34375 C 16.75 -25.34375 15.21875 -24.992188 13.9375 -24.296875 C 12.65625 -23.597656 11.632812 -22.671875 10.875 -21.515625 C 10.125 -20.367188 9.613281 -19.109375 9.34375 -17.734375 C 9.082031 -16.367188 9.082031 -15 9.34375 -13.625 C 9.613281 -12.257812 10.125 -11 10.875 -9.84375 C 11.632812 -8.695312 12.65625 -7.773438 13.9375 -7.078125 C 15.21875 -6.378906 16.75 -6.03125 18.53125 -6.03125 Z M 18.53125 -6.03125 "/></g></g><g style="fill:#000000;fill-opacity:1;"><g transform="translate(331.219817, 63.734188)"><path style="stroke:none" d="M 19.046875 0 L 12.765625 -11.9375 L 9.75 -11.9375 L 9.75 0 L 3.5 0 L 3.5 -31.25 L 15.828125 -31.25 C 17.691406 -31.25 19.269531 -30.863281 20.5625 -30.09375 C 21.851562 -29.320312 22.863281 -28.316406 23.59375 -27.078125 C 24.320312 -25.835938 24.773438 -24.492188 24.953125 -23.046875 C 25.128906 -21.609375 25.019531 -20.195312 24.625 -18.8125 C 24.226562 -17.425781 23.554688 -16.203125 22.609375 -15.140625 C 21.671875 -14.078125 20.425781 -13.328125 18.875 -12.890625 L 26.140625 0 Z M 9.75 -18 L 15.25 -18 C 16.09375 -18 16.769531 -18.234375 17.28125 -18.703125 C 17.789062 -19.171875 18.132812 -19.753906 18.3125 -20.453125 C 18.488281 -21.148438 18.488281 -21.847656 18.3125 -22.546875 C 18.132812 -23.242188 17.789062 -23.828125 17.28125 -24.296875 C 16.769531 -24.765625 16.09375 -25 15.25 -25 L 9.75 -25 Z M 9.75 -18 "/></g></g><g style="fill:#000000;fill-opacity:1;"><g transform="translate(356.351338, 63.734188)"><path style="stroke:none" d="M 19.671875 0 L 3.5 0 L 3.5 -31.25 L 19.140625 -31.25 L 19.140625 -25 L 9.75 -25 L 9.75 -18.75 L 17.96875 -18.75 L 17.96875 -12.5 L 9.75 -12.5 L 9.75 -6.25 L 19.671875 -6.25 Z M 19.671875 0 "/></g></g><g style="fill:#000000;fill-opacity:1;"><g transform="translate(376.718731, 63.734188)"><path style="stroke:none" d="M 2.046875 -2.015625 L 2.84375 -8.5625 C 4.03125 -7.71875 5.210938 -7.113281 6.390625 -6.75 C 7.578125 -6.382812 8.648438 -6.171875 9.609375 -6.109375 C 10.578125 -6.054688 11.289062 -6.046875 11.75 -6.078125 C 12.6875 -6.128906 13.484375 -6.453125 14.140625 -7.046875 C 14.796875 -7.648438 15.078125 -8.375 14.984375 -9.21875 C 14.929688 -10.125 14.597656 -10.804688 13.984375 -11.265625 C 13.367188 -11.734375 12.625 -12.113281 11.75 -12.40625 C 10.125 -13.019531 8.601562 -13.726562 7.1875 -14.53125 C 5.769531 -15.332031 4.628906 -16.328125 3.765625 -17.515625 C 2.910156 -18.710938 2.484375 -20.1875 2.484375 -21.9375 C 2.484375 -23.6875 2.851562 -25.265625 3.59375 -26.671875 C 4.34375 -28.085938 5.382812 -29.21875 6.71875 -30.0625 C 8.0625 -30.90625 9.59375 -31.375 11.3125 -31.46875 C 12.132812 -31.519531 13.132812 -31.488281 14.3125 -31.375 C 15.488281 -31.257812 17.082031 -30.851562 19.09375 -30.15625 L 18.3125 -24.125 C 16.59375 -24.820312 15.222656 -25.222656 14.203125 -25.328125 C 13.179688 -25.429688 12.425781 -25.46875 11.9375 -25.4375 C 10.820312 -25.375 10.007812 -24.992188 9.5 -24.296875 C 8.988281 -23.597656 8.765625 -22.8125 8.828125 -21.9375 C 8.910156 -21.0625 9.285156 -20.394531 9.953125 -19.9375 C 10.628906 -19.488281 11.421875 -19.109375 12.328125 -18.796875 C 13.953125 -18.210938 15.445312 -17.488281 16.8125 -16.625 C 18.1875 -15.769531 19.289062 -14.738281 20.125 -13.53125 C 20.957031 -12.320312 21.375 -10.882812 21.375 -9.21875 C 21.375 -7.5 20.992188 -5.941406 20.234375 -4.546875 C 19.472656 -3.148438 18.382812 -2.023438 16.96875 -1.171875 C 15.5625 -0.328125 13.882812 0.148438 11.9375 0.265625 C 11.351562 0.296875 10.554688 0.273438 9.546875 0.203125 C 8.546875 0.128906 7.40625 -0.0703125 6.125 -0.40625 C 4.84375 -0.75 3.484375 -1.285156 2.046875 -2.015625 Z M 2.046875 -2.015625 "/></g></g><g style="fill:#000000;fill-opacity:1;"><g transform="translate(166.619106, 106.952715)"><path style="stroke:none" d="M 17.828125 -18 L 30.15625 -31.734375 L 32.125 -31.734375 L 32.125 0 L 25.78125 0 L 25.828125 -17.4375 L 17.828125 -9.046875 L 9.828125 -17.4375 L 9.828125 0 L 3.5 0 L 3.5 -31.734375 L 5.5 -31.734375 Z M 17.828125 -18 "/></g></g><g style="fill:#000000;fill-opacity:1;"><g transform="translate(200.623261, 106.952715)"><path style="stroke:none" d="M 0.703125 0 L 13.859375 -32.390625 L 14.515625 -32.390625 L 27.65625 0 L 20.625 0 L 19.359375 -3.359375 L 9 -3.359375 L 7.78125 0 Z M 11.28125 -9.21875 L 17.046875 -9.21875 L 14.203125 -17.34375 Z M 11.28125 -9.21875 "/></g></g><g style="fill:#000000;fill-opacity:1;"><g transform="translate(227.503085, 106.952715)"><path style="stroke:none" d="M 9.75 -17 L 9.75 0 L 3.5 0 L 3.5 -31.90625 L 5.15625 -31.90625 L 20.9375 -13.546875 L 20.9375 -31.203125 L 27.234375 -31.203125 L 27.234375 0.65625 L 25.5625 0.65625 Z M 9.75 -17 "/></g></g><g style="fill:#000000;fill-opacity:1;"><g transform="translate(256.611993, 106.952715)"><path style="stroke:none" d="M 0.703125 0 L 13.859375 -32.390625 L 14.515625 -32.390625 L 27.65625 0 L 20.625 0 L 19.359375 -3.359375 L 9 -3.359375 L 7.78125 0 Z M 11.28125 -9.21875 L 17.046875 -9.21875 L 14.203125 -17.34375 Z M 11.28125 -9.21875 "/></g></g><g style="fill:#000000;fill-opacity:1;"><g transform="translate(283.491817, 106.952715)"><path style="stroke:none" d="M 25.921875 -10.875 C 25.921875 -8.75 25.507812 -6.925781 24.6875 -5.40625 C 23.875 -3.894531 22.796875 -2.6875 21.453125 -1.78125 C 20.117188 -0.882812 18.648438 -0.285156 17.046875 0.015625 C 15.441406 0.328125 13.832031 0.328125 12.21875 0.015625 C 10.601562 -0.285156 9.125 -0.882812 7.78125 -1.78125 C 6.4375 -2.6875 5.359375 -3.894531 4.546875 -5.40625 C 3.734375 -6.925781 3.328125 -8.75 3.328125 -10.875 L 3.328125 -31.25 L 9.578125 -31.25 L 9.578125 -10.921875 C 9.578125 -9.609375 9.914062 -8.554688 10.59375 -7.765625 C 11.28125 -6.984375 12.125 -6.460938 13.125 -6.203125 C 14.132812 -5.941406 15.140625 -5.941406 16.140625 -6.203125 C 17.148438 -6.460938 17.992188 -6.984375 18.671875 -7.765625 C 19.359375 -8.554688 19.703125 -9.609375 19.703125 -10.921875 L 19.703125 -31.25 L 25.921875 -31.25 Z M 25.921875 -10.875 "/></g></g><g style="fill:#000000;fill-opacity:1;"><g transform="translate(311.158379, 106.952715)"><path style="stroke:none" d="M 2.046875 -2.015625 L 2.84375 -8.5625 C 4.03125 -7.71875 5.210938 -7.113281 6.390625 -6.75 C 7.578125 -6.382812 8.648438 -6.171875 9.609375 -6.109375 C 10.578125 -6.054688 11.289062 -6.046875 11.75 -6.078125 C 12.6875 -6.128906 13.484375 -6.453125 14.140625 -7.046875 C 14.796875 -7.648438 15.078125 -8.375 14.984375 -9.21875 C 14.929688 -10.125 14.597656 -10.804688 13.984375 -11.265625 C 13.367188 -11.734375 12.625 -12.113281 11.75 -12.40625 C 10.125 -13.019531 8.601562 -13.726562 7.1875 -14.53125 C 5.769531 -15.332031 4.628906 -16.328125 3.765625 -17.515625 C 2.910156 -18.710938 2.484375 -20.1875 2.484375 -21.9375 C 2.484375 -23.6875 2.851562 -25.265625 3.59375 -26.671875 C 4.34375 -28.085938 5.382812 -29.21875 6.71875 -30.0625 C 8.0625 -30.90625 9.59375 -31.375 11.3125 -31.46875 C 12.132812 -31.519531 13.132812 -31.488281 14.3125 -31.375 C 15.488281 -31.257812 17.082031 -30.851562 19.09375 -30.15625 L 18.3125 -24.125 C 16.59375 -24.820312 15.222656 -25.222656 14.203125 -25.328125 C 13.179688 -25.429688 12.425781 -25.46875 11.9375 -25.4375 C 10.820312 -25.375 10.007812 -24.992188 9.5 -24.296875 C 8.988281 -23.597656 8.765625 -22.8125 8.828125 -21.9375 C 8.910156 -21.0625 9.285156 -20.394531 9.953125 -19.9375 C 10.628906 -19.488281 11.421875 -19.109375 12.328125 -18.796875 C 13.953125 -18.210938 15.445312 -17.488281 16.8125 -16.625 C 18.1875 -15.769531 19.289062 -14.738281 20.125 -13.53125 C 20.957031 -12.320312 21.375 -10.882812 21.375 -9.21875 C 21.375 -7.5 20.992188 -5.941406 20.234375 -4.546875 C 19.472656 -3.148438 18.382812 -2.023438 16.96875 -1.171875 C 15.5625 -0.328125 13.882812 0.148438 11.9375 0.265625 C 11.351562 0.296875 10.554688 0.273438 9.546875 0.203125 C 8.546875 0.128906 7.40625 -0.0703125 6.125 -0.40625 C 4.84375 -0.75 3.484375 -1.285156 2.046875 -2.015625 Z M 2.046875 -2.015625 "/></g></g></g></svg>