<svg xmlns="http://www.w3.org/2000/svg" xmlns:xlink="http://www.w3.org/1999/xlink" width="170" zoomAndPan="magnify" viewBox="0 0 127.5 127.499994" height="170" preserveAspectRatio="xMidYMid meet" version="1.2"><defs><clipPath id="e84600d5af"><path d="M 0 0 L 127 0 L 127 127 L 0 127 Z M 0 0 "/></clipPath></defs><g id="0464ed857b"><path style=" stroke:none;fill-rule:nonzero;fill:#e60084;fill-opacity:1;" d="M 24.238281 70.484375 L 20.457031 73.90625 L 20.457031 78.046875 L 41.207031 78.046875 L 41.207031 72.417969 L 30.179688 72.417969 L 30.179688 72.328125 L 32.878906 70.078125 C 37.109375 66.296875 40.667969 62.382812 40.667969 57.476562 C 40.667969 52.164062 37.019531 48.292969 30.40625 48.292969 C 26.441406 48.292969 23.023438 49.644531 20.816406 51.308594 L 22.753906 56.214844 C 24.28125 55.042969 26.488281 53.785156 29.007812 53.785156 C 32.386719 53.785156 33.824219 55.675781 33.824219 58.0625 C 33.734375 61.480469 30.628906 64.769531 24.238281 70.484375 "/><path style=" stroke:none;fill-rule:nonzero;fill:#e60084;fill-opacity:1;" d="M 50.976562 65.9375 L 50.976562 65.847656 L 54.890625 59.457031 C 55.882812 57.609375 56.644531 55.902344 57.59375 54.007812 L 57.773438 54.007812 C 57.636719 55.902344 57.546875 57.703125 57.546875 59.457031 L 57.546875 65.9375 Z M 64.027344 78.046875 L 64.027344 71.070312 L 67.539062 71.070312 L 67.539062 65.9375 L 64.027344 65.9375 L 64.027344 48.789062 L 55.65625 48.789062 L 44.582031 66.613281 L 44.582031 71.070312 L 57.546875 71.070312 L 57.546875 78.046875 L 64.027344 78.046875 "/><path style=" stroke:none;fill-rule:nonzero;fill:#e60084;fill-opacity:1;" d="M 73.796875 79.847656 L 83.429688 47.214844 L 78.882812 47.214844 L 69.25 79.847656 L 73.796875 79.847656 "/><path style=" stroke:none;fill-rule:nonzero;fill:#e60084;fill-opacity:1;" d="M 86.984375 78.046875 L 94.230469 78.046875 L 106.292969 53.109375 L 106.292969 48.789062 L 85.632812 48.789062 L 85.632812 54.414062 L 99.046875 54.414062 L 99.046875 54.503906 L 86.984375 78.046875 "/><g clip-rule="nonzero" clip-path="url(#e84600d5af)"><path style=" stroke:none;fill-rule:nonzero;fill:#e60084;fill-opacity:1;" d="M 126.855469 60.972656 L 115.617188 61.421875 C 116.203125 75.96875 110.632812 90.214844 100.347656 100.5 C 79.960938 120.886719 46.789062 120.886719 26.40625 100.5 C 6.019531 80.117188 6.019531 46.945312 26.40625 26.558594 C 46.789062 6.171875 79.960938 6.171875 100.347656 26.558594 L 94.363281 32.539062 L 114.28125 32.539062 L 114.28125 12.625 L 108.296875 18.609375 C 96.296875 6.609375 80.34375 0 63.375 0 C 46.40625 0 30.453125 6.609375 18.453125 18.609375 C 6.453125 30.609375 -0.152344 46.5625 -0.152344 63.53125 C -0.152344 80.5 6.453125 96.453125 18.453125 108.453125 C 30.453125 120.453125 46.40625 127.058594 63.375 127.058594 C 80.34375 127.058594 96.296875 120.453125 108.296875 108.453125 C 114.679688 102.070312 119.535156 94.59375 122.726562 86.226562 C 125.8125 78.144531 127.199219 69.648438 126.855469 60.972656 "/></g></g></svg>