<svg xmlns="http://www.w3.org/2000/svg" xmlns:xlink="http://www.w3.org/1999/xlink" width="170" zoomAndPan="magnify" viewBox="0 0 127.5 127.499994" height="170" preserveAspectRatio="xMidYMid meet" version="1.2"><defs><clipPath id="55113fb136"><path d="M 4 5 L 123 5 L 123 123.746094 L 4 123.746094 Z M 4 5 "/></clipPath><clipPath id="803970b733"><rect x="0" width="127" y="0" height="124"/></clipPath></defs><g id="f8dfd2ab9a"><g transform="matrix(1,0,0,1,0,2)"><g clip-path="url(#803970b733)"><g clip-rule="nonzero" clip-path="url(#55113fb136)"><path style=" stroke:none;fill-rule:nonzero;fill:#e60084;fill-opacity:1;" d="M 115.828125 44.660156 C 116.558594 43.933594 117.234375 43.160156 117.859375 42.339844 C 118.484375 41.523438 119.050781 40.664062 119.558594 39.769531 C 120.066406 38.875 120.515625 37.949219 120.902344 36.996094 C 121.285156 36.039062 121.605469 35.066406 121.859375 34.066406 C 122.113281 33.070312 122.300781 32.058594 122.417969 31.035156 C 122.539062 30.011719 122.585938 28.988281 122.566406 27.957031 C 122.550781 26.929688 122.460938 25.90625 122.304688 24.886719 C 122.148438 23.871094 121.925781 22.867188 121.632812 21.878906 C 121.574219 21.675781 121.488281 21.480469 121.378906 21.296875 C 121.265625 21.117188 121.136719 20.949219 120.980469 20.800781 C 120.828125 20.652344 120.65625 20.527344 120.472656 20.421875 C 120.285156 20.320312 120.089844 20.242188 119.882812 20.1875 C 119.675781 20.136719 119.464844 20.109375 119.25 20.113281 C 119.039062 20.113281 118.828125 20.140625 118.621094 20.199219 C 118.417969 20.253906 118.222656 20.335938 118.035156 20.445312 C 117.851562 20.550781 117.683594 20.679688 117.53125 20.832031 L 107.4375 30.921875 L 98.527344 29.445312 L 97.050781 20.535156 L 107.140625 10.4375 C 107.292969 10.289062 107.425781 10.117188 107.535156 9.933594 C 107.644531 9.746094 107.726562 9.550781 107.785156 9.34375 C 107.839844 9.136719 107.871094 8.921875 107.871094 8.707031 C 107.875 8.492188 107.847656 8.28125 107.792969 8.070312 C 107.738281 7.863281 107.660156 7.664062 107.554688 7.476562 C 107.445312 7.289062 107.320312 7.121094 107.167969 6.964844 C 107.015625 6.8125 106.847656 6.679688 106.664062 6.570312 C 106.476562 6.460938 106.28125 6.378906 106.074219 6.320312 C 105.046875 6.015625 104.007812 5.785156 102.949219 5.628906 C 101.894531 5.472656 100.832031 5.386719 99.761719 5.378906 C 98.695312 5.371094 97.628906 5.433594 96.570312 5.574219 C 95.511719 5.714844 94.464844 5.925781 93.4375 6.210938 C 92.40625 6.496094 91.402344 6.847656 90.421875 7.273438 C 89.4375 7.699219 88.492188 8.191406 87.582031 8.746094 C 86.667969 9.304688 85.800781 9.921875 84.972656 10.597656 C 84.148438 11.277344 83.371094 12.007812 82.648438 12.792969 C 81.925781 13.582031 81.257812 14.414062 80.652344 15.292969 C 80.042969 16.171875 79.5 17.085938 79.019531 18.042969 C 78.539062 18.996094 78.125 19.980469 77.785156 20.992188 C 77.441406 22.003906 77.167969 23.035156 76.96875 24.085938 C 76.769531 25.136719 76.644531 26.195312 76.59375 27.261719 C 76.539062 28.328125 76.5625 29.394531 76.660156 30.457031 C 76.757812 31.523438 76.925781 32.574219 77.171875 33.617188 C 77.414062 34.65625 77.726562 35.675781 78.113281 36.671875 L 64.679688 50.105469 L 51.796875 37.222656 L 57.410156 31.609375 C 57.761719 31.253906 57.984375 30.828125 58.078125 30.332031 C 58.171875 29.839844 58.125 29.363281 57.929688 28.898438 C 57.699219 28.292969 57.542969 27.671875 57.460938 27.027344 C 57.382812 26.382812 57.378906 25.742188 57.457031 25.097656 C 57.53125 24.453125 57.6875 23.828125 57.914062 23.222656 C 58.144531 22.617188 58.445312 22.046875 58.8125 21.515625 C 60.996094 18.746094 63.621094 16.492188 66.6875 14.75 C 66.859375 14.660156 67.019531 14.550781 67.164062 14.425781 C 67.3125 14.296875 67.441406 14.152344 67.554688 13.996094 C 67.664062 13.835938 67.757812 13.667969 67.832031 13.488281 C 67.902344 13.308594 67.953125 13.121094 67.980469 12.929688 C 68.007812 12.738281 68.015625 12.546875 67.996094 12.351562 C 67.980469 12.160156 67.941406 11.96875 67.878906 11.785156 C 67.816406 11.601562 67.734375 11.429688 67.632812 11.265625 C 67.527344 11.097656 67.40625 10.949219 67.269531 10.8125 C 67.140625 10.683594 54.203125 -1.882812 39.703125 12.65625 L 5.148438 47.226562 C 4.914062 47.457031 4.738281 47.722656 4.613281 48.023438 C 4.488281 48.324219 4.425781 48.640625 4.425781 48.964844 C 4.425781 49.292969 4.488281 49.605469 4.613281 49.90625 C 4.738281 50.207031 4.914062 50.476562 5.148438 50.707031 L 19.996094 65.558594 C 20.230469 65.789062 20.496094 65.964844 20.796875 66.089844 C 21.097656 66.214844 21.410156 66.277344 21.738281 66.277344 C 22.0625 66.277344 22.378906 66.214844 22.679688 66.089844 C 22.980469 65.964844 23.246094 65.789062 23.476562 65.558594 L 36.425781 52.582031 L 49.320312 65.464844 L 35.714844 79.070312 C 34.71875 78.683594 33.699219 78.371094 32.660156 78.125 C 31.621094 77.882812 30.566406 77.710938 29.503906 77.617188 C 28.4375 77.519531 27.371094 77.496094 26.304688 77.546875 C 25.238281 77.601562 24.179688 77.726562 23.128906 77.925781 C 22.078125 78.125 21.046875 78.394531 20.035156 78.738281 C 19.023438 79.082031 18.042969 79.492188 17.085938 79.972656 C 16.132812 80.453125 15.214844 81 14.335938 81.605469 C 13.457031 82.214844 12.625 82.878906 11.839844 83.605469 C 11.054688 84.328125 10.320312 85.101562 9.644531 85.929688 C 8.964844 86.753906 8.347656 87.625 7.792969 88.535156 C 7.234375 89.449219 6.742188 90.394531 6.320312 91.375 C 5.894531 92.355469 5.539062 93.363281 5.253906 94.390625 C 4.96875 95.421875 4.757812 96.464844 4.617188 97.527344 C 4.480469 98.585938 4.414062 99.648438 4.421875 100.71875 C 4.433594 101.785156 4.515625 102.847656 4.671875 103.90625 C 4.832031 104.964844 5.0625 106.003906 5.363281 107.027344 C 5.421875 107.234375 5.507812 107.429688 5.621094 107.609375 C 5.730469 107.792969 5.863281 107.957031 6.015625 108.105469 C 6.167969 108.253906 6.339844 108.382812 6.523438 108.484375 C 6.710938 108.589844 6.910156 108.667969 7.113281 108.71875 C 7.320312 108.773438 7.53125 108.800781 7.746094 108.796875 C 7.957031 108.796875 8.167969 108.765625 8.375 108.710938 C 8.582031 108.652344 8.777344 108.570312 8.960938 108.464844 C 9.144531 108.359375 9.3125 108.230469 9.464844 108.078125 L 19.558594 97.988281 L 28.46875 99.464844 L 29.945312 108.375 L 19.855469 118.46875 C 19.703125 118.621094 19.574219 118.789062 19.46875 118.972656 C 19.359375 119.15625 19.28125 119.351562 19.222656 119.558594 C 19.167969 119.765625 19.136719 119.972656 19.136719 120.1875 C 19.132812 120.402344 19.160156 120.609375 19.210938 120.816406 C 19.265625 121.023438 19.34375 121.222656 19.449219 121.40625 C 19.550781 121.59375 19.679688 121.765625 19.828125 121.917969 C 19.972656 122.070312 20.140625 122.203125 20.324219 122.3125 C 20.503906 122.425781 20.699219 122.507812 20.902344 122.570312 C 21.929688 122.871094 22.96875 123.101562 24.027344 123.257812 C 25.082031 123.417969 26.144531 123.5 27.214844 123.507812 C 28.285156 123.519531 29.347656 123.453125 30.40625 123.316406 C 31.464844 123.175781 32.511719 122.964844 33.542969 122.679688 C 34.570312 122.394531 35.578125 122.039062 36.558594 121.613281 C 37.539062 121.191406 38.484375 120.699219 39.394531 120.140625 C 40.308594 119.585938 41.175781 118.96875 42.003906 118.289062 C 42.828125 117.613281 43.605469 116.878906 44.328125 116.09375 C 45.050781 115.308594 45.71875 114.476562 46.328125 113.597656 C 46.933594 112.71875 47.480469 111.800781 47.960938 110.847656 C 48.4375 109.890625 48.851562 108.910156 49.195312 107.898438 C 49.539062 106.882812 49.808594 105.855469 50.007812 104.804688 C 50.207031 103.753906 50.332031 102.695312 50.382812 101.628906 C 50.4375 100.558594 50.414062 99.496094 50.316406 98.429688 C 50.21875 97.367188 50.050781 96.3125 49.808594 95.273438 C 49.5625 94.234375 49.25 93.214844 48.863281 92.21875 L 62.515625 78.632812 L 104.019531 120.136719 C 105.023438 121.144531 106.183594 121.921875 107.5 122.46875 C 108.8125 123.011719 110.183594 123.28125 111.605469 123.277344 C 113.066406 123.277344 114.46875 122.992188 115.816406 122.429688 C 117.164062 121.871094 118.351562 121.070312 119.378906 120.035156 C 119.878906 119.53125 120.324219 118.988281 120.714844 118.398438 C 121.105469 117.808594 121.4375 117.183594 121.707031 116.53125 C 121.976562 115.875 122.179688 115.203125 122.316406 114.507812 C 122.453125 113.8125 122.523438 113.113281 122.523438 112.40625 C 122.523438 111.695312 122.453125 110.996094 122.316406 110.300781 C 122.179688 109.605469 121.976562 108.933594 121.707031 108.277344 C 121.4375 107.625 121.105469 107.003906 120.714844 106.414062 C 120.324219 105.824219 119.878906 105.277344 119.378906 104.773438 L 77.847656 63.273438 L 91.28125 49.839844 C 92.316406 50.238281 93.371094 50.558594 94.449219 50.804688 C 95.53125 51.050781 96.621094 51.21875 97.726562 51.308594 C 98.828125 51.394531 99.933594 51.40625 101.039062 51.332031 C 102.144531 51.261719 103.238281 51.113281 104.324219 50.886719 C 105.40625 50.65625 106.46875 50.351562 107.507812 49.96875 C 108.546875 49.589844 109.554688 49.132812 110.527344 48.605469 C 111.5 48.078125 112.433594 47.484375 113.320312 46.824219 C 114.210938 46.164062 115.046875 45.441406 115.828125 44.660156 Z M 43.179688 16.140625 C 50.945312 8.375 57.695312 10.304688 61.253906 12.402344 C 58.800781 14.136719 56.667969 16.199219 54.855469 18.589844 C 54.3125 19.347656 53.855469 20.152344 53.492188 21.011719 C 53.125 21.867188 52.859375 22.753906 52.6875 23.667969 C 52.515625 24.582031 52.449219 25.507812 52.480469 26.4375 C 52.515625 27.367188 52.648438 28.285156 52.886719 29.183594 L 30.648438 51.410156 L 19.285156 40.039062 Z M 21.742188 60.320312 L 10.371094 48.953125 L 15.785156 43.539062 L 27.152344 54.910156 Z M 44.226562 89.933594 C 43.855469 90.300781 43.628906 90.742188 43.535156 91.253906 C 43.445312 91.765625 43.511719 92.257812 43.734375 92.730469 C 44.132812 93.566406 44.46875 94.433594 44.734375 95.320312 C 45 96.210938 45.195312 97.117188 45.324219 98.035156 C 45.453125 98.957031 45.507812 99.878906 45.492188 100.808594 C 45.480469 101.738281 45.394531 102.660156 45.238281 103.574219 C 45.078125 104.492188 44.855469 105.390625 44.558594 106.269531 C 44.265625 107.152344 43.90625 108.003906 43.476562 108.828125 C 43.050781 109.65625 42.566406 110.441406 42.019531 111.191406 C 41.472656 111.941406 40.871094 112.648438 40.214844 113.304688 C 39.324219 114.175781 38.359375 114.945312 37.3125 115.621094 C 36.269531 116.296875 35.167969 116.863281 34.007812 117.316406 C 32.851562 117.773438 31.660156 118.109375 30.433594 118.324219 C 29.210938 118.539062 27.976562 118.632812 26.730469 118.601562 L 34.347656 110.972656 C 34.628906 110.691406 34.832031 110.363281 34.953125 109.984375 C 35.074219 109.605469 35.101562 109.21875 35.035156 108.824219 L 33.03125 96.941406 C 32.945312 96.425781 32.71875 95.980469 32.34375 95.605469 C 31.972656 95.234375 31.527344 95.007812 31.007812 94.917969 L 19.125 92.917969 C 18.734375 92.851562 18.347656 92.878906 17.96875 93 C 17.589844 93.121094 17.261719 93.324219 16.980469 93.605469 L 9.351562 101.21875 C 9.335938 100.832031 9.332031 100.445312 9.34375 100.058594 C 9.351562 99.671875 9.375 99.285156 9.410156 98.898438 C 9.445312 98.515625 9.492188 98.128906 9.550781 97.746094 C 9.609375 97.363281 9.679688 96.984375 9.765625 96.605469 C 9.847656 96.226562 9.945312 95.851562 10.050781 95.480469 C 10.160156 95.109375 10.277344 94.742188 10.410156 94.375 C 10.542969 94.011719 10.683594 93.652344 10.839844 93.296875 C 10.996094 92.941406 11.160156 92.59375 11.335938 92.25 C 11.515625 91.902344 11.703125 91.566406 11.902344 91.234375 C 12.101562 90.902344 12.308594 90.574219 12.527344 90.257812 C 12.75 89.9375 12.980469 89.625 13.21875 89.320312 C 13.457031 89.019531 13.707031 88.722656 13.964844 88.433594 C 14.226562 88.144531 14.492188 87.867188 14.769531 87.59375 C 15.046875 87.324219 15.332031 87.0625 15.625 86.808594 C 15.917969 86.558594 16.21875 86.316406 16.53125 86.082031 C 16.839844 85.847656 17.15625 85.625 17.480469 85.414062 C 17.800781 85.199219 18.132812 84.996094 18.46875 84.804688 C 18.804688 84.613281 19.148438 84.433594 19.496094 84.265625 C 19.84375 84.09375 20.199219 83.9375 20.554688 83.789062 C 20.914062 83.640625 21.277344 83.507812 21.644531 83.382812 C 22.011719 83.261719 22.382812 83.148438 22.753906 83.046875 C 23.128906 82.949219 23.507812 82.859375 23.886719 82.785156 C 24.265625 82.710938 24.648438 82.648438 25.03125 82.59375 C 25.417969 82.542969 25.800781 82.507812 26.1875 82.480469 C 26.574219 82.453125 26.960938 82.441406 27.347656 82.4375 C 27.734375 82.4375 28.121094 82.449219 28.507812 82.472656 C 28.894531 82.496094 29.28125 82.53125 29.664062 82.578125 C 30.050781 82.628906 30.433594 82.6875 30.8125 82.761719 C 31.191406 82.832031 31.570312 82.917969 31.945312 83.015625 C 32.320312 83.113281 32.691406 83.222656 33.058594 83.34375 C 33.425781 83.464844 33.792969 83.597656 34.152344 83.742188 C 34.511719 83.886719 34.863281 84.042969 35.214844 84.207031 C 35.683594 84.429688 36.175781 84.496094 36.691406 84.40625 C 37.203125 84.316406 37.644531 84.085938 38.007812 83.714844 L 52.777344 68.949219 L 58.984375 75.15625 Z M 115.769531 116.65625 C 115.5 116.929688 115.203125 117.171875 114.882812 117.386719 C 114.5625 117.601562 114.222656 117.78125 113.867188 117.929688 C 113.511719 118.074219 113.144531 118.1875 112.769531 118.261719 C 112.390625 118.335938 112.007812 118.375 111.625 118.375 C 111.238281 118.375 110.855469 118.335938 110.480469 118.261719 C 110.101562 118.1875 109.734375 118.074219 109.378906 117.929688 C 109.023438 117.78125 108.6875 117.601562 108.367188 117.386719 C 108.046875 117.171875 107.75 116.929688 107.476562 116.65625 L 39.917969 49.101562 L 48.316406 40.703125 L 115.875 108.265625 C 116.148438 108.542969 116.390625 108.84375 116.605469 109.171875 C 116.820312 109.496094 117 109.84375 117.144531 110.203125 C 117.292969 110.566406 117.398438 110.9375 117.472656 111.320312 C 117.542969 111.707031 117.578125 112.09375 117.574219 112.484375 C 117.566406 112.875 117.523438 113.257812 117.445312 113.640625 C 117.363281 114.023438 117.242188 114.390625 117.089844 114.75 C 116.933594 115.109375 116.746094 115.449219 116.523438 115.769531 C 116.304688 116.089844 116.050781 116.386719 115.769531 116.65625 Z M 88.976562 45.183594 L 74.367188 59.792969 L 68.160156 53.585938 L 82.769531 38.976562 C 83.140625 38.609375 83.371094 38.167969 83.460938 37.65625 C 83.550781 37.140625 83.484375 36.648438 83.261719 36.179688 C 82.863281 35.339844 82.53125 34.476562 82.261719 33.585938 C 81.996094 32.695312 81.800781 31.792969 81.671875 30.871094 C 81.546875 29.953125 81.488281 29.027344 81.503906 28.097656 C 81.519531 27.171875 81.605469 26.25 81.761719 25.332031 C 81.917969 24.417969 82.144531 23.519531 82.4375 22.640625 C 82.730469 21.757812 83.09375 20.90625 83.519531 20.078125 C 83.945312 19.253906 84.429688 18.464844 84.976562 17.714844 C 85.523438 16.964844 86.125 16.261719 86.78125 15.601562 C 87.675781 14.738281 88.640625 13.964844 89.6875 13.292969 C 90.734375 12.617188 91.832031 12.054688 92.992188 11.601562 C 94.148438 11.144531 95.339844 10.808594 96.5625 10.589844 C 97.789062 10.375 99.023438 10.277344 100.265625 10.304688 L 92.648438 17.9375 C 92.367188 18.21875 92.167969 18.546875 92.046875 18.925781 C 91.921875 19.304688 91.894531 19.691406 91.960938 20.082031 L 93.964844 31.964844 C 94.050781 32.484375 94.28125 32.929688 94.652344 33.300781 C 95.023438 33.671875 95.46875 33.902344 95.988281 33.988281 L 107.871094 35.992188 C 108.261719 36.058594 108.648438 36.03125 109.027344 35.90625 C 109.40625 35.785156 109.734375 35.585938 110.015625 35.304688 L 117.644531 27.6875 C 117.660156 28.074219 117.664062 28.460938 117.65625 28.847656 C 117.644531 29.234375 117.625 29.621094 117.589844 30.007812 C 117.554688 30.394531 117.507812 30.777344 117.449219 31.160156 C 117.390625 31.542969 117.316406 31.925781 117.234375 32.300781 C 117.152344 32.679688 117.054688 33.054688 116.945312 33.425781 C 116.839844 33.800781 116.71875 34.167969 116.589844 34.53125 C 116.457031 34.894531 116.3125 35.253906 116.160156 35.609375 C 116.003906 35.964844 115.839844 36.316406 115.664062 36.660156 C 115.484375 37.003906 115.296875 37.34375 115.097656 37.675781 C 114.898438 38.007812 114.691406 38.332031 114.472656 38.652344 C 114.25 38.972656 114.019531 39.28125 113.78125 39.585938 C 113.542969 39.890625 113.292969 40.1875 113.035156 40.476562 C 112.773438 40.761719 112.507812 41.042969 112.230469 41.3125 C 111.953125 41.585938 111.667969 41.847656 111.375 42.097656 C 111.082031 42.351562 110.78125 42.59375 110.472656 42.828125 C 110.160156 43.0625 109.84375 43.285156 109.523438 43.496094 C 109.199219 43.710938 108.867188 43.910156 108.53125 44.101562 C 108.195312 44.296875 107.851562 44.476562 107.503906 44.644531 C 107.15625 44.816406 106.804688 44.972656 106.445312 45.121094 C 106.085938 45.265625 105.722656 45.402344 105.355469 45.527344 C 104.988281 45.648438 104.621094 45.761719 104.246094 45.859375 C 103.871094 45.960938 103.492188 46.046875 103.113281 46.125 C 102.734375 46.199219 102.351562 46.261719 101.96875 46.3125 C 101.585938 46.363281 101.199219 46.402344 100.8125 46.429688 C 100.425781 46.457031 100.039062 46.46875 99.652344 46.472656 C 99.265625 46.472656 98.878906 46.460938 98.492188 46.4375 C 98.105469 46.414062 97.71875 46.378906 97.335938 46.328125 C 96.953125 46.28125 96.570312 46.222656 96.1875 46.148438 C 95.808594 46.074219 95.429688 45.988281 95.054688 45.894531 C 94.679688 45.796875 94.308594 45.6875 93.941406 45.566406 C 93.574219 45.445312 93.210938 45.3125 92.851562 45.167969 C 92.492188 45.023438 92.136719 44.867188 91.789062 44.699219 C 91.316406 44.472656 90.820312 44.402344 90.304688 44.492188 C 89.789062 44.582031 89.347656 44.8125 88.976562 45.183594 Z M 88.976562 45.183594 "/></g></g></g></g></svg>