<svg xmlns="http://www.w3.org/2000/svg" xmlns:xlink="http://www.w3.org/1999/xlink" width="170" zoomAndPan="magnify" viewBox="0 0 127.5 127.499994" height="170" preserveAspectRatio="xMidYMid meet" version="1.2"><defs><clipPath id="a48af6dd43"><path d="M 0 0.910156 L 125.507812 0.910156 L 125.507812 100.835938 L 0 100.835938 Z M 0 0.910156 "/></clipPath><clipPath id="626b0397a4"><path d="M 25 15 L 46 15 L 46 86.066406 L 25 86.066406 Z M 25 15 "/></clipPath><clipPath id="f151a761c7"><path d="M 25 15 L 46 15 L 46 86.066406 L 25 86.066406 Z M 25 15 "/></clipPath><clipPath id="37eebd76ef"><path d="M 57 3 L 125.507812 3 L 125.507812 100 L 57 100 Z M 57 3 "/></clipPath><clipPath id="e9de5d96d7"><rect x="0" width="126" y="0" height="101"/></clipPath><clipPath id="326758f782"><rect x="0" width="126" y="0" height="101"/></clipPath></defs><g id="9ba5653640"><g transform="matrix(1,0,0,1,0,12)"><g clip-path="url(#326758f782)"><g clip-rule="nonzero" clip-path="url(#a48af6dd43)"><g transform="matrix(1,0,0,1,0,0.000000000000003553)"><g id="0bf8dce3c1" clip-path="url(#e9de5d96d7)"><path style=" stroke:none;fill-rule:nonzero;fill:#000000;fill-opacity:1;" d="M 1.480469 3.601562 L 60.875 3.601562 L 60.875 22.074219 L 1.480469 22.074219 Z M 1.480469 3.601562 "/><g clip-rule="nonzero" clip-path="url(#626b0397a4)"><path style=" stroke:none;fill-rule:nonzero;fill:#000000;fill-opacity:1;" d="M 25.617188 15.128906 L 45.519531 15.128906 L 45.519531 86.335938 L 25.617188 86.335938 Z M 25.617188 15.128906 "/></g><path style=" stroke:none;fill-rule:nonzero;fill:#000000;fill-opacity:1;" d="M 1.480469 3.601562 L 60.875 3.601562 L 60.875 22.074219 L 1.480469 22.074219 Z M 1.480469 3.601562 "/><g clip-rule="nonzero" clip-path="url(#f151a761c7)"><path style=" stroke:none;fill-rule:nonzero;fill:#000000;fill-opacity:1;" d="M 25.617188 15.128906 L 45.519531 15.128906 L 45.519531 86.335938 L 25.617188 86.335938 Z M 25.617188 15.128906 "/></g><path style=" stroke:none;fill-rule:nonzero;fill:#000000;fill-opacity:1;" d="M 60.414062 3.589844 L 66.894531 3.617188 L 60.855469 22.148438 Z M 60.414062 3.589844 "/><g clip-rule="nonzero" clip-path="url(#37eebd76ef)"><path style=" stroke:none;fill-rule:nonzero;fill:#e60084;fill-opacity:1;" d="M 73.460938 3.578125 L 125.191406 3.691406 L 125.300781 22.339844 L 88.226562 22.339844 L 83.453125 37.4375 L 113.425781 37.546875 L 87.226562 68.628906 L 124.636719 68.40625 L 124.636719 86.277344 L 72.796875 86.5 L 61.808594 99.933594 L 75.128906 54.640625 L 57.144531 54.640625 Z M 73.460938 3.578125 "/></g></g></g></g></g></g></g></svg>